<?xml version="1.0" encoding="utf-8" standalone="no"?>
<!DOCTYPE svg PUBLIC "-//W3C//DTD SVG 1.1//EN"
  "http://www.w3.org/Graphics/SVG/1.1/DTD/svg11.dtd">
<svg xmlns:xlink="http://www.w3.org/1999/xlink" width="532.795928pt" height="440.85625pt" viewBox="0 0 532.795928 440.85625" xmlns="http://www.w3.org/2000/svg" version="1.1">
 <metadata>
  <rdf:RDF xmlns:dc="http://purl.org/dc/elements/1.1/" xmlns:cc="http://creativecommons.org/ns#" xmlns:rdf="http://www.w3.org/1999/02/22-rdf-syntax-ns#">
   <cc:Work>
    <dc:type rdf:resource="http://purl.org/dc/dcmitype/StillImage"/>
    <dc:date>2026-04-20T18:27:56.489697</dc:date>
    <dc:format>image/svg+xml</dc:format>
    <dc:creator>
     <cc:Agent>
      <dc:title>Matplotlib v3.10.0, https://matplotlib.org/</dc:title>
     </cc:Agent>
    </dc:creator>
   </cc:Work>
  </rdf:RDF>
 </metadata>
 <defs>
  <style type="text/css">*{stroke-linejoin: round; stroke-linecap: butt}</style>
 </defs>
 <g id="figure_1">
  <g id="patch_1">
   <path d="M 0 440.85625 
L 532.795928 440.85625 
L 532.795928 0 
L 0 0 
z
" style="fill: #ffffff"/>
  </g>
  <g id="axes_1">
   <g id="patch_2">
    <path d="M 39.435938 180.869063 
L 223.373834 180.869063 
L 223.373834 27.869062 
L 39.435938 27.869062 
z
" style="fill: #ffffff"/>
   </g>
   <g id="patch_3">
    <path d="M 47.796751 180.869063 
L 87.367013 180.869063 
L 87.367013 71.321062 
L 47.796751 71.321062 
z
" clip-path="url(#pfa9d2fc290)" style="fill: #666666; stroke: #000000; stroke-width: 0.6; stroke-linejoin: miter"/>
   </g>
   <g id="patch_4">
    <path d="M 111.619755 180.869063 
L 151.190017 180.869063 
L 151.190017 31.586962 
L 111.619755 31.586962 
z
" clip-path="url(#pfa9d2fc290)" style="fill: #0072b2; stroke: #000000; stroke-width: 0.6; stroke-linejoin: miter"/>
   </g>
   <g id="patch_5">
    <path d="M 175.442759 180.869063 
L 215.013021 180.869063 
L 215.013021 29.903962 
L 175.442759 29.903962 
z
" clip-path="url(#pfa9d2fc290)" style="fill: #d55e00; stroke: #000000; stroke-width: 0.6; stroke-linejoin: miter"/>
   </g>
   <g id="matplotlib.axis_1">
    <g id="xtick_1">
     <g id="line2d_1">
      <defs>
       <path id="m73f05c2bc1" d="M 0 0 
L 0 3 
" style="stroke: #000000; stroke-width: 0.72"/>
      </defs>
      <g>
       <use xlink:href="#m73f05c2bc1" x="67.581882" y="180.869063" style="stroke: #000000; stroke-width: 0.72"/>
      </g>
     </g>
     <g id="text_1">
      <text style="font-size: 8px; font-family: 'Arial', 'Helvetica', 'Liberation Sans', 'DejaVu Sans', sans-serif" transform="translate(46.679382 193.166563)">Length-only</text>
      <text style="font-size: 8px; font-family: 'Arial', 'Helvetica', 'Liberation Sans', 'DejaVu Sans', sans-serif" transform="translate(52.682507 201.783563)">baseline</text>
     </g>
    </g>
    <g id="xtick_2">
     <g id="line2d_2">
      <g>
       <use xlink:href="#m73f05c2bc1" x="131.404886" y="180.869063" style="stroke: #000000; stroke-width: 0.72"/>
      </g>
     </g>
     <g id="text_2">
      <text style="font-size: 8px; font-family: 'Arial', 'Helvetica', 'Liberation Sans', 'DejaVu Sans', sans-serif" transform="translate(111.177386 193.166563)">FlatfishBert</text>
      <text style="font-size: 8px; font-family: 'Arial', 'Helvetica', 'Liberation Sans', 'DejaVu Sans', sans-serif" transform="translate(122.288011 201.783563)">Exp4</text>
     </g>
    </g>
    <g id="xtick_3">
     <g id="line2d_3">
      <g>
       <use xlink:href="#m73f05c2bc1" x="195.22789" y="180.869063" style="stroke: #000000; stroke-width: 0.72"/>
      </g>
     </g>
     <g id="text_3">
      <text style="font-size: 8px; font-family: 'Arial', 'Helvetica', 'Liberation Sans', 'DejaVu Sans', sans-serif" transform="translate(172.84789 193.166563)">DNABERT-2</text>
      <text style="font-size: 8px; font-family: 'Arial', 'Helvetica', 'Liberation Sans', 'DejaVu Sans', sans-serif" transform="translate(186.111015 201.783563)">Exp4</text>
     </g>
    </g>
   </g>
   <g id="matplotlib.axis_2">
    <g id="ytick_1">
     <g id="line2d_4">
      <path d="M 39.435938 180.869063 
L 223.373834 180.869063 
" clip-path="url(#pfa9d2fc290)" style="fill: none; stroke-dasharray: 2.1,2.1; stroke-dashoffset: 0; stroke: #666666; stroke-opacity: 0.25; stroke-width: 0.7"/>
     </g>
     <g id="line2d_5">
      <defs>
       <path id="mea05f939c7" d="M 0 0 
L -3 0 
" style="stroke: #000000; stroke-width: 0.72"/>
      </defs>
      <g>
       <use xlink:href="#mea05f939c7" x="39.435938" y="180.869063" style="stroke: #000000; stroke-width: 0.72"/>
      </g>
     </g>
     <g id="text_4">
      <text style="font-size: 8px; font-family: 'Arial', 'Helvetica', 'Liberation Sans', 'DejaVu Sans', sans-serif; text-anchor: end" x="32.935938" y="183.767813" transform="rotate(-0 32.935938 183.767813)">0</text>
     </g>
    </g>
    <g id="ytick_2">
     <g id="line2d_6">
      <path d="M 39.435938 150.269063 
L 223.373834 150.269063 
" clip-path="url(#pfa9d2fc290)" style="fill: none; stroke-dasharray: 2.1,2.1; stroke-dashoffset: 0; stroke: #666666; stroke-opacity: 0.25; stroke-width: 0.7"/>
     </g>
     <g id="line2d_7">
      <g>
       <use xlink:href="#mea05f939c7" x="39.435938" y="150.269063" style="stroke: #000000; stroke-width: 0.72"/>
      </g>
     </g>
     <g id="text_5">
      <text style="font-size: 8px; font-family: 'Arial', 'Helvetica', 'Liberation Sans', 'DejaVu Sans', sans-serif; text-anchor: end" x="32.935938" y="153.167813" transform="rotate(-0 32.935938 153.167813)">20</text>
     </g>
    </g>
    <g id="ytick_3">
     <g id="line2d_8">
      <path d="M 39.435938 119.669063 
L 223.373834 119.669063 
" clip-path="url(#pfa9d2fc290)" style="fill: none; stroke-dasharray: 2.1,2.1; stroke-dashoffset: 0; stroke: #666666; stroke-opacity: 0.25; stroke-width: 0.7"/>
     </g>
     <g id="line2d_9">
      <g>
       <use xlink:href="#mea05f939c7" x="39.435938" y="119.669063" style="stroke: #000000; stroke-width: 0.72"/>
      </g>
     </g>
     <g id="text_6">
      <text style="font-size: 8px; font-family: 'Arial', 'Helvetica', 'Liberation Sans', 'DejaVu Sans', sans-serif; text-anchor: end" x="32.935938" y="122.567813" transform="rotate(-0 32.935938 122.567813)">40</text>
     </g>
    </g>
    <g id="ytick_4">
     <g id="line2d_10">
      <path d="M 39.435938 89.069063 
L 223.373834 89.069063 
" clip-path="url(#pfa9d2fc290)" style="fill: none; stroke-dasharray: 2.1,2.1; stroke-dashoffset: 0; stroke: #666666; stroke-opacity: 0.25; stroke-width: 0.7"/>
     </g>
     <g id="line2d_11">
      <g>
       <use xlink:href="#mea05f939c7" x="39.435938" y="89.069063" style="stroke: #000000; stroke-width: 0.72"/>
      </g>
     </g>
     <g id="text_7">
      <text style="font-size: 8px; font-family: 'Arial', 'Helvetica', 'Liberation Sans', 'DejaVu Sans', sans-serif; text-anchor: end" x="32.935938" y="91.967813" transform="rotate(-0 32.935938 91.967813)">60</text>
     </g>
    </g>
    <g id="ytick_5">
     <g id="line2d_12">
      <path d="M 39.435938 58.469062 
L 223.373834 58.469062 
" clip-path="url(#pfa9d2fc290)" style="fill: none; stroke-dasharray: 2.1,2.1; stroke-dashoffset: 0; stroke: #666666; stroke-opacity: 0.25; stroke-width: 0.7"/>
     </g>
     <g id="line2d_13">
      <g>
       <use xlink:href="#mea05f939c7" x="39.435938" y="58.469062" style="stroke: #000000; stroke-width: 0.72"/>
      </g>
     </g>
     <g id="text_8">
      <text style="font-size: 8px; font-family: 'Arial', 'Helvetica', 'Liberation Sans', 'DejaVu Sans', sans-serif; text-anchor: end" x="32.935938" y="61.367813" transform="rotate(-0 32.935938 61.367813)">80</text>
     </g>
    </g>
    <g id="ytick_6">
     <g id="line2d_14">
      <path d="M 39.435938 27.869062 
L 223.373834 27.869062 
" clip-path="url(#pfa9d2fc290)" style="fill: none; stroke-dasharray: 2.1,2.1; stroke-dashoffset: 0; stroke: #666666; stroke-opacity: 0.25; stroke-width: 0.7"/>
     </g>
     <g id="line2d_15">
      <g>
       <use xlink:href="#mea05f939c7" x="39.435938" y="27.869062" style="stroke: #000000; stroke-width: 0.72"/>
      </g>
     </g>
     <g id="text_9">
      <text style="font-size: 8px; font-family: 'Arial', 'Helvetica', 'Liberation Sans', 'DejaVu Sans', sans-serif; text-anchor: end" x="32.935938" y="30.767812" transform="rotate(-0 32.935938 30.767812)">100</text>
     </g>
    </g>
    <g id="text_10">
     <text style="font-size: 9px; font-family: 'Arial', 'Helvetica', 'Liberation Sans', 'DejaVu Sans', sans-serif; text-anchor: middle" x="13.722188" y="104.369062" transform="rotate(-90 13.722188 104.369062)">Macro-F1 (%)</text>
    </g>
   </g>
   <g id="patch_6">
    <path d="M 39.435938 180.869063 
L 39.435938 27.869062 
" style="fill: none; stroke: #000000; stroke-width: 0.8; stroke-linejoin: miter; stroke-linecap: square"/>
   </g>
   <g id="patch_7">
    <path d="M 223.373834 180.869063 
L 223.373834 27.869062 
" style="fill: none; stroke: #000000; stroke-width: 0.8; stroke-linejoin: miter; stroke-linecap: square"/>
   </g>
   <g id="patch_8">
    <path d="M 39.435937 180.869063 
L 223.373834 180.869063 
" style="fill: none; stroke: #000000; stroke-width: 0.8; stroke-linejoin: miter; stroke-linecap: square"/>
   </g>
   <g id="patch_9">
    <path d="M 39.435937 27.869062 
L 223.373834 27.869062 
" style="fill: none; stroke: #000000; stroke-width: 0.8; stroke-linejoin: miter; stroke-linecap: square"/>
   </g>
   <g id="text_11">
    <text style="font-size: 7.5px; font-family: 'Arial', 'Helvetica', 'Liberation Sans', 'DejaVu Sans', sans-serif; text-anchor: middle" x="67.581882" y="67.622813" transform="rotate(-0 67.581882 67.622813)">71.60</text>
   </g>
   <g id="text_12">
    <text style="font-size: 7.5px; font-family: 'Arial', 'Helvetica', 'Liberation Sans', 'DejaVu Sans', sans-serif; text-anchor: middle" x="131.404886" y="27.888712" transform="rotate(-0 131.404886 27.888712)">97.57</text>
   </g>
   <g id="text_13">
    <text style="font-size: 7.5px; font-family: 'Arial', 'Helvetica', 'Liberation Sans', 'DejaVu Sans', sans-serif; text-anchor: middle" x="195.22789" y="26.205712" transform="rotate(-0 195.22789 26.205712)">98.67</text>
   </g>
   <g id="text_14">
    <text style="font-size: 7.5px; font-family: 'Arial', 'Helvetica', 'Liberation Sans', 'DejaVu Sans', sans-serif; text-anchor: start; fill: #666666" x="43.114695" y="42.484219" transform="rotate(-0 43.114695 42.484219)">Threshold = 236 bp</text>
   </g>
   <g id="text_15">
    <text style="font-weight: 700; font-size: 9px; font-family: 'Arial', 'Helvetica', 'Liberation Sans', 'DejaVu Sans', sans-serif; text-anchor: start" x="13.684632" y="13.722187" transform="rotate(-0 13.684632 13.722187)">A  Length-only baseline</text>
   </g>
  </g>
  <g id="axes_2">
   <g id="patch_10">
    <path d="M 291.541219 180.869063 
L 384.296227 180.869063 
L 384.296227 27.869062 
L 291.541219 27.869062 
z
" style="fill: #ffffff"/>
   </g>
   <g id="FillBetweenPolyCollection_1">
    <defs>
     <path id="m981c7dbe9b" d="M 314.737827 -266.941733 
L 314.722116 -266.941733 
L 314.7242 -267.931967 
L 314.727683 -268.922201 
L 314.729479 -269.912435 
L 314.729867 -270.902669 
L 314.729538 -271.892903 
L 314.727858 -272.883137 
L 314.724206 -273.873371 
L 314.720373 -274.863605 
L 314.717199 -275.853839 
L 314.712997 -276.844073 
L 314.710256 -277.834307 
L 314.707176 -278.824541 
L 314.692258 -279.814775 
L 314.66485 -280.805009 
L 314.638631 -281.795243 
L 314.609432 -282.785477 
L 314.572959 -283.775712 
L 314.559601 -284.765946 
L 314.569888 -285.75618 
L 314.559193 -286.746414 
L 314.522034 -287.736648 
L 314.482744 -288.726882 
L 314.436859 -289.717116 
L 314.377416 -290.70735 
L 314.309343 -291.697584 
L 314.241203 -292.687818 
L 314.171255 -293.678052 
L 314.074911 -294.668286 
L 313.924838 -295.65852 
L 313.752136 -296.648754 
L 313.610577 -297.638988 
L 313.422854 -298.629222 
L 313.088632 -299.619456 
L 312.650137 -300.60969 
L 312.14118 -301.599924 
L 311.501935 -302.590158 
L 310.690413 -303.580392 
L 309.724519 -304.570626 
L 308.628956 -305.56086 
L 307.368915 -306.551094 
L 306.010595 -307.541328 
L 304.66099 -308.531562 
L 303.213259 -309.521796 
L 301.489867 -310.51203 
L 299.517006 -311.502264 
L 297.546349 -312.492498 
L 295.821189 -313.482732 
L 294.621095 -314.472967 
L 294.323869 -315.463201 
L 294.994551 -316.453435 
L 296.448556 -317.443669 
L 298.555365 -318.433903 
L 301.158861 -319.424137 
L 303.928877 -320.414371 
L 306.421311 -321.404605 
L 308.393677 -322.394839 
L 309.95016 -323.385073 
L 311.184807 -324.375307 
L 312.044257 -325.365541 
L 312.558917 -326.355775 
L 312.873899 -327.346009 
L 313.121185 -328.336243 
L 313.323472 -329.326477 
L 313.442999 -330.316711 
L 313.498814 -331.306945 
L 313.574527 -332.297179 
L 313.675727 -333.287413 
L 313.746859 -334.277647 
L 313.784262 -335.267881 
L 313.826089 -336.258115 
L 313.89838 -337.248349 
L 313.992047 -338.238583 
L 314.082294 -339.228817 
L 314.156105 -340.219051 
L 314.225567 -341.209285 
L 314.291702 -342.199519 
L 314.345358 -343.189753 
L 314.398025 -344.179987 
L 314.461691 -345.170222 
L 314.526419 -346.160456 
L 314.566246 -347.15069 
L 314.56691 -348.140924 
L 314.556477 -349.131158 
L 314.571751 -350.121392 
L 314.611579 -351.111626 
L 314.653667 -352.10186 
L 314.679814 -353.092094 
L 314.685574 -354.082328 
L 314.684469 -355.072562 
L 314.693162 -356.062796 
L 314.708784 -357.05303 
L 314.716996 -358.043264 
L 314.716071 -359.033498 
L 314.712207 -360.023732 
L 314.709928 -361.013966 
L 314.71168 -362.0042 
L 314.715471 -362.994434 
L 314.718189 -363.984668 
L 314.72024 -364.974902 
L 314.739703 -364.974902 
L 314.739703 -364.974902 
L 314.741753 -363.984668 
L 314.744471 -362.994434 
L 314.748262 -362.0042 
L 314.750014 -361.013966 
L 314.747735 -360.023732 
L 314.743871 -359.033498 
L 314.742946 -358.043264 
L 314.751158 -357.05303 
L 314.76678 -356.062796 
L 314.775473 -355.072562 
L 314.774368 -354.082328 
L 314.780128 -353.092094 
L 314.806275 -352.10186 
L 314.848363 -351.111626 
L 314.888191 -350.121392 
L 314.903465 -349.131158 
L 314.893032 -348.140924 
L 314.893696 -347.15069 
L 314.933524 -346.160456 
L 314.998251 -345.170222 
L 315.061918 -344.179987 
L 315.114584 -343.189753 
L 315.16824 -342.199519 
L 315.234375 -341.209285 
L 315.303837 -340.219051 
L 315.377649 -339.228817 
L 315.467895 -338.238583 
L 315.561562 -337.248349 
L 315.633853 -336.258115 
L 315.67568 -335.267881 
L 315.713083 -334.277647 
L 315.784215 -333.287413 
L 315.885415 -332.297179 
L 315.961128 -331.306945 
L 316.016943 -330.316711 
L 316.13647 -329.326477 
L 316.338757 -328.336243 
L 316.586043 -327.346009 
L 316.901025 -326.355775 
L 317.415685 -325.365541 
L 318.275135 -324.375307 
L 319.509782 -323.385073 
L 321.066265 -322.394839 
L 323.038631 -321.404605 
L 325.531065 -320.414371 
L 328.301081 -319.424137 
L 330.904577 -318.433903 
L 333.011386 -317.443669 
L 334.465391 -316.453435 
L 335.136073 -315.463201 
L 334.838847 -314.472967 
L 333.638753 -313.482732 
L 331.913593 -312.492498 
L 329.942936 -311.502264 
L 327.970075 -310.51203 
L 326.246683 -309.521796 
L 324.798953 -308.531562 
L 323.449347 -307.541328 
L 322.091027 -306.551094 
L 320.830986 -305.56086 
L 319.735423 -304.570626 
L 318.769529 -303.580392 
L 317.958007 -302.590158 
L 317.318762 -301.599924 
L 316.809805 -300.60969 
L 316.37131 -299.619456 
L 316.037088 -298.629222 
L 315.849365 -297.638988 
L 315.707806 -296.648754 
L 315.535104 -295.65852 
L 315.385031 -294.668286 
L 315.288687 -293.678052 
L 315.218739 -292.687818 
L 315.1506 -291.697584 
L 315.082526 -290.70735 
L 315.023083 -289.717116 
L 314.977198 -288.726882 
L 314.937908 -287.736648 
L 314.900749 -286.746414 
L 314.890054 -285.75618 
L 314.900341 -284.765946 
L 314.886983 -283.775712 
L 314.85051 -282.785477 
L 314.821311 -281.795243 
L 314.795093 -280.805009 
L 314.767684 -279.814775 
L 314.752766 -278.824541 
L 314.749686 -277.834307 
L 314.746945 -276.844073 
L 314.742743 -275.853839 
L 314.739569 -274.863605 
L 314.735736 -273.873371 
L 314.732084 -272.883137 
L 314.730404 -271.892903 
L 314.730075 -270.902669 
L 314.730463 -269.912435 
L 314.732259 -268.922201 
L 314.735742 -267.931967 
L 314.737827 -266.941733 
z
" style="stroke: #5b7f5a; stroke-opacity: 0.15; stroke-width: 1.1"/>
    </defs>
    <g clip-path="url(#p67bc54fba0)">
     <use xlink:href="#m981c7dbe9b" x="0" y="440.85625" style="fill: #dde9d8; fill-opacity: 0.15; stroke: #5b7f5a; stroke-opacity: 0.15; stroke-width: 1.1"/>
    </g>
   </g>
   <g id="FillBetweenPolyCollection_2">
    <defs>
     <path id="ma95004b069" d="M 361.18204 -298.163906 
L 361.03291 -298.163906 
L 361.007848 -299.253489 
L 360.981887 -300.343072 
L 360.938239 -301.432655 
L 360.820578 -302.522238 
L 360.494957 -303.611822 
L 359.713556 -304.701405 
L 358.136384 -305.790988 
L 355.480177 -306.880571 
L 351.778118 -307.970154 
L 347.571496 -309.059738 
L 343.800762 -310.149321 
L 341.373583 -311.238904 
L 340.701373 -312.328487 
L 341.553733 -313.41807 
L 343.296181 -314.507654 
L 345.269246 -315.597237 
L 347.036368 -316.68682 
L 348.419472 -317.776403 
L 349.4101 -318.865986 
L 350.068795 -319.95557 
L 350.464115 -321.045153 
L 350.650311 -322.134736 
L 350.66853 -323.224319 
L 350.558739 -324.313902 
L 350.370753 -325.403486 
L 350.164341 -326.493069 
L 349.99474 -327.582652 
L 349.890608 -328.672235 
L 349.841815 -329.761818 
L 349.813782 -330.851401 
L 349.784467 -331.940985 
L 349.77346 -333.030568 
L 349.833927 -334.120151 
L 350.014991 -335.209734 
L 350.332111 -336.299317 
L 350.768098 -337.388901 
L 351.291486 -338.478484 
L 351.86988 -339.568067 
L 352.474157 -340.65765 
L 353.080885 -341.747233 
L 353.674498 -342.836817 
L 354.245783 -343.9264 
L 354.788007 -345.015983 
L 355.294981 -346.105566 
L 355.760505 -347.195149 
L 356.177093 -348.284733 
L 356.537251 -349.374316 
L 356.840082 -350.463899 
L 357.097239 -351.553482 
L 357.330073 -352.643065 
L 357.558724 -353.732649 
L 357.792298 -354.822232 
L 358.028448 -355.911815 
L 358.261158 -357.001398 
L 358.487031 -358.090981 
L 358.703932 -359.180565 
L 358.907079 -360.270148 
L 359.090067 -361.359731 
L 359.249413 -362.449314 
L 359.386464 -363.538897 
L 359.505655 -364.628481 
L 359.612749 -365.718064 
L 359.714428 -366.807647 
L 359.817045 -367.89723 
L 359.923292 -368.986813 
L 360.029552 -370.076397 
L 360.128052 -371.16598 
L 360.213331 -372.255563 
L 360.286869 -373.345146 
L 360.355284 -374.434729 
L 360.424434 -375.524313 
L 360.495381 -376.613896 
L 360.565251 -377.703479 
L 360.630656 -378.793062 
L 360.689455 -379.882645 
L 360.740292 -380.972229 
L 360.78271 -382.061812 
L 360.818442 -383.151395 
L 360.851162 -384.240978 
L 360.883897 -385.330561 
L 360.916825 -386.420145 
L 360.947689 -387.509728 
L 360.973966 -388.599311 
L 360.99471 -389.688894 
L 361.010899 -390.778477 
L 361.02445 -391.86806 
L 361.036957 -392.957644 
L 361.049117 -394.047227 
L 361.060956 -395.13681 
L 361.072227 -396.226393 
L 361.082542 -397.315976 
L 361.091338 -398.40556 
L 361.098011 -399.495143 
L 361.102193 -400.584726 
L 361.103935 -401.674309 
L 361.103691 -402.763892 
L 361.102265 -403.853476 
L 361.100723 -404.943059 
L 361.100077 -406.032642 
L 361.114873 -406.032642 
L 361.114873 -406.032642 
L 361.114227 -404.943059 
L 361.112685 -403.853476 
L 361.111259 -402.763892 
L 361.111015 -401.674309 
L 361.112757 -400.584726 
L 361.116939 -399.495143 
L 361.123612 -398.40556 
L 361.132408 -397.315976 
L 361.142723 -396.226393 
L 361.153994 -395.13681 
L 361.165833 -394.047227 
L 361.177993 -392.957644 
L 361.1905 -391.86806 
L 361.204051 -390.778477 
L 361.22024 -389.688894 
L 361.240984 -388.599311 
L 361.267261 -387.509728 
L 361.298125 -386.420145 
L 361.331053 -385.330561 
L 361.363788 -384.240978 
L 361.396508 -383.151395 
L 361.43224 -382.061812 
L 361.474658 -380.972229 
L 361.525495 -379.882645 
L 361.584294 -378.793062 
L 361.649699 -377.703479 
L 361.719569 -376.613896 
L 361.790516 -375.524313 
L 361.859666 -374.434729 
L 361.928081 -373.345146 
L 362.001619 -372.255563 
L 362.086898 -371.16598 
L 362.185398 -370.076397 
L 362.291658 -368.986813 
L 362.397905 -367.89723 
L 362.500521 -366.807647 
L 362.602201 -365.718064 
L 362.709295 -364.628481 
L 362.828486 -363.538897 
L 362.965537 -362.449314 
L 363.124883 -361.359731 
L 363.30787 -360.270148 
L 363.511018 -359.180565 
L 363.727919 -358.090981 
L 363.953792 -357.001398 
L 364.186502 -355.911815 
L 364.422652 -354.822232 
L 364.656226 -353.732649 
L 364.884877 -352.643065 
L 365.117711 -351.553482 
L 365.374867 -350.463899 
L 365.677699 -349.374316 
L 366.037857 -348.284733 
L 366.454445 -347.195149 
L 366.919969 -346.105566 
L 367.426943 -345.015983 
L 367.969167 -343.9264 
L 368.540452 -342.836817 
L 369.134065 -341.747233 
L 369.740793 -340.65765 
L 370.34507 -339.568067 
L 370.923464 -338.478484 
L 371.446852 -337.388901 
L 371.882839 -336.299317 
L 372.199958 -335.209734 
L 372.381022 -334.120151 
L 372.44149 -333.030568 
L 372.430483 -331.940985 
L 372.401168 -330.851401 
L 372.373135 -329.761818 
L 372.324342 -328.672235 
L 372.22021 -327.582652 
L 372.050609 -326.493069 
L 371.844197 -325.403486 
L 371.656211 -324.313902 
L 371.54642 -323.224319 
L 371.564639 -322.134736 
L 371.750835 -321.045153 
L 372.146155 -319.95557 
L 372.80485 -318.865986 
L 373.795478 -317.776403 
L 375.178582 -316.68682 
L 376.945704 -315.597237 
L 378.918769 -314.507654 
L 380.661217 -313.41807 
L 381.513577 -312.328487 
L 380.841367 -311.238904 
L 378.414188 -310.149321 
L 374.643454 -309.059738 
L 370.436832 -307.970154 
L 366.734773 -306.880571 
L 364.078566 -305.790988 
L 362.501394 -304.701405 
L 361.719993 -303.611822 
L 361.394372 -302.522238 
L 361.276711 -301.432655 
L 361.233063 -300.343072 
L 361.207102 -299.253489 
L 361.18204 -298.163906 
z
" style="stroke: #b67a4b; stroke-opacity: 0.15; stroke-width: 1.1"/>
    </defs>
    <g clip-path="url(#p67bc54fba0)">
     <use xlink:href="#ma95004b069" x="0" y="440.85625" style="fill: #f2e2d4; fill-opacity: 0.15; stroke: #b67a4b; stroke-opacity: 0.15; stroke-width: 1.1"/>
    </g>
   </g>
   <g id="matplotlib.axis_3">
    <g id="xtick_4">
     <g id="line2d_16">
      <g>
       <use xlink:href="#m73f05c2bc1" x="314.729971" y="180.869063" style="stroke: #000000; stroke-width: 0.72"/>
      </g>
     </g>
     <g id="text_16">
      <text style="font-size: 8px; font-family: 'Arial', 'Helvetica', 'Liberation Sans', 'DejaVu Sans', sans-serif; text-anchor: middle" x="314.729971" y="193.166563" transform="rotate(-0 314.729971 193.166563)">CDS</text>
     </g>
    </g>
    <g id="xtick_5">
     <g id="line2d_17">
      <g>
       <use xlink:href="#m73f05c2bc1" x="361.107475" y="180.869063" style="stroke: #000000; stroke-width: 0.72"/>
      </g>
     </g>
     <g id="text_17">
      <text style="font-size: 8px; font-family: 'Arial', 'Helvetica', 'Liberation Sans', 'DejaVu Sans', sans-serif; text-anchor: middle" x="361.107475" y="193.166563" transform="rotate(-0 361.107475 193.166563)">intron</text>
     </g>
    </g>
   </g>
   <g id="matplotlib.axis_4">
    <g id="ytick_7">
     <g id="line2d_18">
      <path d="M 291.541219 155.358676 
L 384.296227 155.358676 
" clip-path="url(#p67bc54fba0)" style="fill: none; stroke-dasharray: 2.1,2.1; stroke-dashoffset: 0; stroke: #666666; stroke-opacity: 0.25; stroke-width: 0.7"/>
     </g>
     <g id="line2d_19">
      <g>
       <use xlink:href="#mea05f939c7" x="291.541219" y="155.358676" style="stroke: #000000; stroke-width: 0.72"/>
      </g>
     </g>
     <g id="text_18">
      <text style="font-size: 8px; font-family: 'Arial', 'Helvetica', 'Liberation Sans', 'DejaVu Sans', sans-serif; text-anchor: end" x="285.041219" y="158.257426" transform="rotate(-0 285.041219 158.257426)">1</text>
     </g>
    </g>
    <g id="ytick_8">
     <g id="line2d_20">
      <path d="M 291.541219 128.81127 
L 384.296227 128.81127 
" clip-path="url(#p67bc54fba0)" style="fill: none; stroke-dasharray: 2.1,2.1; stroke-dashoffset: 0; stroke: #666666; stroke-opacity: 0.25; stroke-width: 0.7"/>
     </g>
     <g id="line2d_21">
      <g>
       <use xlink:href="#mea05f939c7" x="291.541219" y="128.81127" style="stroke: #000000; stroke-width: 0.72"/>
      </g>
     </g>
     <g id="text_19">
      <text style="font-size: 8px; font-family: 'Arial', 'Helvetica', 'Liberation Sans', 'DejaVu Sans', sans-serif; text-anchor: end" x="285.041219" y="131.71002" transform="rotate(-0 285.041219 131.71002)">2</text>
     </g>
    </g>
    <g id="ytick_9">
     <g id="line2d_22">
      <path d="M 291.541219 102.263863 
L 384.296227 102.263863 
" clip-path="url(#p67bc54fba0)" style="fill: none; stroke-dasharray: 2.1,2.1; stroke-dashoffset: 0; stroke: #666666; stroke-opacity: 0.25; stroke-width: 0.7"/>
     </g>
     <g id="line2d_23">
      <g>
       <use xlink:href="#mea05f939c7" x="291.541219" y="102.263863" style="stroke: #000000; stroke-width: 0.72"/>
      </g>
     </g>
     <g id="text_20">
      <text style="font-size: 8px; font-family: 'Arial', 'Helvetica', 'Liberation Sans', 'DejaVu Sans', sans-serif; text-anchor: end" x="285.041219" y="105.162613" transform="rotate(-0 285.041219 105.162613)">3</text>
     </g>
    </g>
    <g id="ytick_10">
     <g id="line2d_24">
      <path d="M 291.541219 75.716457 
L 384.296227 75.716457 
" clip-path="url(#p67bc54fba0)" style="fill: none; stroke-dasharray: 2.1,2.1; stroke-dashoffset: 0; stroke: #666666; stroke-opacity: 0.25; stroke-width: 0.7"/>
     </g>
     <g id="line2d_25">
      <g>
       <use xlink:href="#mea05f939c7" x="291.541219" y="75.716457" style="stroke: #000000; stroke-width: 0.72"/>
      </g>
     </g>
     <g id="text_21">
      <text style="font-size: 8px; font-family: 'Arial', 'Helvetica', 'Liberation Sans', 'DejaVu Sans', sans-serif; text-anchor: end" x="285.041219" y="78.615207" transform="rotate(-0 285.041219 78.615207)">4</text>
     </g>
    </g>
    <g id="ytick_11">
     <g id="line2d_26">
      <path d="M 291.541219 49.169051 
L 384.296227 49.169051 
" clip-path="url(#p67bc54fba0)" style="fill: none; stroke-dasharray: 2.1,2.1; stroke-dashoffset: 0; stroke: #666666; stroke-opacity: 0.25; stroke-width: 0.7"/>
     </g>
     <g id="line2d_27">
      <g>
       <use xlink:href="#mea05f939c7" x="291.541219" y="49.169051" style="stroke: #000000; stroke-width: 0.72"/>
      </g>
     </g>
     <g id="text_22">
      <text style="font-size: 8px; font-family: 'Arial', 'Helvetica', 'Liberation Sans', 'DejaVu Sans', sans-serif; text-anchor: end" x="285.041219" y="52.067801" transform="rotate(-0 285.041219 52.067801)">5</text>
     </g>
    </g>
    <g id="text_23">
     <text style="font-size: 9px; font-family: 'Arial', 'Helvetica', 'Liberation Sans', 'DejaVu Sans', sans-serif; text-anchor: middle" x="274.724969" y="104.369062" transform="rotate(-90 274.724969 104.369062)">log10 length (bp)</text>
    </g>
   </g>
   <g id="patch_11">
    <path d="M 309.164671 130.416877 
L 320.295272 130.416877 
L 320.295272 122.35924 
L 309.164671 122.35924 
L 309.164671 130.416877 
z
" clip-path="url(#p67bc54fba0)" style="fill: #dde9d8; opacity: 0.35; stroke: #5b7f5a; stroke-width: 1.1; stroke-linejoin: miter"/>
   </g>
   <g id="line2d_28">
    <path d="M 314.729971 130.416877 
L 314.729971 142.314298 
" clip-path="url(#p67bc54fba0)" style="fill: none; stroke: #666666; stroke-width: 0.8; stroke-linecap: square"/>
   </g>
   <g id="line2d_29">
    <path d="M 314.729971 122.35924 
L 314.729971 110.278511 
" clip-path="url(#p67bc54fba0)" style="fill: none; stroke: #666666; stroke-width: 0.8; stroke-linecap: square"/>
   </g>
   <g id="line2d_30">
    <path d="M 311.947321 142.314298 
L 317.512621 142.314298 
" clip-path="url(#p67bc54fba0)" style="fill: none; stroke: #666666; stroke-width: 0.8; stroke-linecap: square"/>
   </g>
   <g id="line2d_31">
    <path d="M 311.947321 110.278511 
L 317.512621 110.278511 
" clip-path="url(#p67bc54fba0)" style="fill: none; stroke: #666666; stroke-width: 0.8; stroke-linecap: square"/>
   </g>
   <g id="patch_12">
    <path d="M 355.542175 126.424522 
L 366.672775 126.424522 
L 366.672775 102.411809 
L 355.542175 102.411809 
L 355.542175 126.424522 
z
" clip-path="url(#p67bc54fba0)" style="fill: #f2e2d4; opacity: 0.35; stroke: #b67a4b; stroke-width: 1.1; stroke-linejoin: miter"/>
   </g>
   <g id="line2d_32">
    <path d="M 361.107475 126.424522 
L 361.107475 142.692344 
" clip-path="url(#p67bc54fba0)" style="fill: none; stroke: #666666; stroke-width: 0.8; stroke-linecap: square"/>
   </g>
   <g id="line2d_33">
    <path d="M 361.107475 102.411809 
L 361.107475 66.463664 
" clip-path="url(#p67bc54fba0)" style="fill: none; stroke: #666666; stroke-width: 0.8; stroke-linecap: square"/>
   </g>
   <g id="line2d_34">
    <path d="M 358.324825 142.692344 
L 363.890125 142.692344 
" clip-path="url(#p67bc54fba0)" style="fill: none; stroke: #666666; stroke-width: 0.8; stroke-linecap: square"/>
   </g>
   <g id="line2d_35">
    <path d="M 358.324825 66.463664 
L 363.890125 66.463664 
" clip-path="url(#p67bc54fba0)" style="fill: none; stroke: #666666; stroke-width: 0.8; stroke-linecap: square"/>
   </g>
   <g id="line2d_36">
    <path d="M 309.164671 126.146692 
L 320.295272 126.146692 
" clip-path="url(#p67bc54fba0)" style="fill: none; stroke: #2a2a2a; stroke-width: 1.2"/>
   </g>
   <g id="line2d_37">
    <path d="M 355.542175 114.550301 
L 366.672775 114.550301 
" clip-path="url(#p67bc54fba0)" style="fill: none; stroke: #2a2a2a; stroke-width: 1.2"/>
   </g>
   <g id="patch_13">
    <path d="M 291.541219 180.869063 
L 291.541219 27.869062 
" style="fill: none; stroke: #000000; stroke-width: 0.8; stroke-linejoin: miter; stroke-linecap: square"/>
   </g>
   <g id="patch_14">
    <path d="M 384.296227 180.869063 
L 384.296227 27.869062 
" style="fill: none; stroke: #000000; stroke-width: 0.8; stroke-linejoin: miter; stroke-linecap: square"/>
   </g>
   <g id="patch_15">
    <path d="M 291.541219 180.869063 
L 384.296227 180.869063 
" style="fill: none; stroke: #000000; stroke-width: 0.8; stroke-linejoin: miter; stroke-linecap: square"/>
   </g>
   <g id="patch_16">
    <path d="M 291.541219 27.869062 
L 384.296227 27.869062 
" style="fill: none; stroke: #000000; stroke-width: 0.8; stroke-linejoin: miter; stroke-linecap: square"/>
   </g>
   <g id="text_24">
    <text style="font-weight: 700; font-size: 9px; font-family: 'Arial', 'Helvetica', 'Liberation Sans', 'DejaVu Sans', sans-serif; text-anchor: start" x="278.555518" y="13.761562" transform="rotate(-0 278.555518 13.761562)">B  Sequence features</text>
   </g>
  </g>
  <g id="axes_3">
   <g id="patch_17">
    <path d="M 415.83293 180.869063 
L 508.587938 180.869063 
L 508.587938 27.869062 
L 415.83293 27.869062 
z
" style="fill: #ffffff"/>
   </g>
   <g id="FillBetweenPolyCollection_3">
    <defs>
     <path id="m5eba0cfc1b" d="M 439.032412 -198.787187 
L 439.010951 -198.787187 
L 439.014292 -201.436538 
L 439.019269 -204.085889 
L 439.021308 -206.735239 
L 439.021654 -209.38459 
L 439.021681 -212.033941 
L 439.021682 -214.683291 
L 439.021682 -217.332642 
L 439.021678 -219.981993 
L 439.021592 -222.631343 
L 439.020608 -225.280694 
L 439.015557 -227.930045 
L 439.005113 -230.579395 
L 439.000331 -233.228746 
L 439.007724 -235.878097 
L 439.013322 -238.527447 
L 439.011397 -241.176798 
L 439.011874 -243.826149 
L 439.017044 -246.475499 
L 439.020599 -249.12485 
L 439.020975 -251.7742 
L 439.017528 -254.423551 
L 439.007874 -257.072902 
L 438.998789 -259.722252 
L 438.9982 -262.371603 
L 438.997799 -265.020954 
L 438.998687 -267.670304 
L 439.001874 -270.319655 
L 438.994558 -272.969006 
L 438.988264 -275.618356 
L 438.996466 -278.267707 
L 439.001907 -280.917058 
L 438.991824 -283.566408 
L 438.960058 -286.215759 
L 438.909838 -288.86511 
L 438.873215 -291.51446 
L 438.867112 -294.163811 
L 438.829751 -296.813162 
L 438.706941 -299.462512 
L 438.558355 -302.111863 
L 438.414096 -304.761213 
L 438.250336 -307.410564 
L 438.067109 -310.059915 
L 437.848781 -312.709265 
L 437.535258 -315.358616 
L 437.096358 -318.007967 
L 436.575868 -320.657317 
L 436.023602 -323.306668 
L 435.318411 -325.956019 
L 434.306641 -328.605369 
L 433.095447 -331.25472 
L 431.873702 -333.904071 
L 430.669446 -336.553421 
L 429.349011 -339.202772 
L 427.799247 -341.852123 
L 426.015502 -344.501473 
L 424.197062 -347.150824 
L 422.497942 -349.800175 
L 421.072479 -352.449525 
L 419.916203 -355.098876 
L 419.077425 -357.748226 
L 418.679039 -360.397577 
L 418.61558 -363.046928 
L 418.88435 -365.696278 
L 419.53077 -368.345629 
L 420.533096 -370.99498 
L 421.894201 -373.64433 
L 423.540944 -376.293681 
L 425.323428 -378.943032 
L 427.223373 -381.592382 
L 429.044333 -384.241733 
L 430.537471 -386.891084 
L 431.872044 -389.540434 
L 433.247931 -392.189785 
L 434.52677 -394.839136 
L 435.501791 -397.488486 
L 436.191995 -400.137837 
L 436.737516 -402.787187 
L 437.265196 -405.436538 
L 437.757691 -408.085889 
L 438.141339 -410.735239 
L 438.405161 -413.38459 
L 438.578844 -416.033941 
L 438.708081 -418.683291 
L 438.814672 -421.332642 
L 438.877532 -423.981993 
L 438.910701 -426.631343 
L 438.948071 -429.280694 
L 438.987542 -431.930045 
L 439.011831 -434.579395 
L 439.020056 -437.228746 
L 439.021538 -439.878097 
L 439.021675 -442.527447 
L 439.021681 -445.176798 
L 439.021681 -447.826149 
L 439.021654 -450.475499 
L 439.021308 -453.12485 
L 439.019269 -455.7742 
L 439.014292 -458.423551 
L 439.010951 -461.072902 
L 439.032412 -461.072902 
L 439.032412 -461.072902 
L 439.029071 -458.423551 
L 439.024094 -455.7742 
L 439.022055 -453.12485 
L 439.021709 -450.475499 
L 439.021683 -447.826149 
L 439.021682 -445.176798 
L 439.021688 -442.527447 
L 439.021826 -439.878097 
L 439.023307 -437.228746 
L 439.031532 -434.579395 
L 439.055821 -431.930045 
L 439.095292 -429.280694 
L 439.132662 -426.631343 
L 439.165831 -423.981993 
L 439.228691 -421.332642 
L 439.335282 -418.683291 
L 439.464519 -416.033941 
L 439.638202 -413.38459 
L 439.902025 -410.735239 
L 440.285672 -408.085889 
L 440.778168 -405.436538 
L 441.305847 -402.787187 
L 441.851368 -400.137837 
L 442.541572 -397.488486 
L 443.516593 -394.839136 
L 444.795432 -392.189785 
L 446.17132 -389.540434 
L 447.505893 -386.891084 
L 448.99903 -384.241733 
L 450.81999 -381.592382 
L 452.719935 -378.943032 
L 454.502419 -376.293681 
L 456.149162 -373.64433 
L 457.510267 -370.99498 
L 458.512593 -368.345629 
L 459.159013 -365.696278 
L 459.427783 -363.046928 
L 459.364324 -360.397577 
L 458.965938 -357.748226 
L 458.12716 -355.098876 
L 456.970884 -352.449525 
L 455.545421 -349.800175 
L 453.846302 -347.150824 
L 452.027861 -344.501473 
L 450.244116 -341.852123 
L 448.694352 -339.202772 
L 447.373917 -336.553421 
L 446.169661 -333.904071 
L 444.947916 -331.25472 
L 443.736722 -328.605369 
L 442.724952 -325.956019 
L 442.019761 -323.306668 
L 441.467496 -320.657317 
L 440.947005 -318.007967 
L 440.508105 -315.358616 
L 440.194582 -312.709265 
L 439.976254 -310.059915 
L 439.793027 -307.410564 
L 439.629267 -304.761213 
L 439.485008 -302.111863 
L 439.336422 -299.462512 
L 439.213612 -296.813162 
L 439.176251 -294.163811 
L 439.170148 -291.51446 
L 439.133525 -288.86511 
L 439.083305 -286.215759 
L 439.05154 -283.566408 
L 439.041457 -280.917058 
L 439.046897 -278.267707 
L 439.055099 -275.618356 
L 439.048805 -272.969006 
L 439.041489 -270.319655 
L 439.044677 -267.670304 
L 439.045564 -265.020954 
L 439.045164 -262.371603 
L 439.044575 -259.722252 
L 439.035489 -257.072902 
L 439.025835 -254.423551 
L 439.022388 -251.7742 
L 439.022764 -249.12485 
L 439.026319 -246.475499 
L 439.03149 -243.826149 
L 439.031966 -241.176798 
L 439.030041 -238.527447 
L 439.03564 -235.878097 
L 439.043032 -233.228746 
L 439.03825 -230.579395 
L 439.027806 -227.930045 
L 439.022756 -225.280694 
L 439.021771 -222.631343 
L 439.021685 -219.981993 
L 439.021682 -217.332642 
L 439.021682 -214.683291 
L 439.021683 -212.033941 
L 439.021709 -209.38459 
L 439.022055 -206.735239 
L 439.024094 -204.085889 
L 439.029071 -201.436538 
L 439.032412 -198.787187 
z
" style="stroke: #5b7f5a; stroke-opacity: 0.15; stroke-width: 1.1"/>
    </defs>
    <g clip-path="url(#p0342f3bf9b)">
     <use xlink:href="#m5eba0cfc1b" x="0" y="440.85625" style="fill: #dde9d8; fill-opacity: 0.15; stroke: #5b7f5a; stroke-opacity: 0.15; stroke-width: 1.1"/>
    </g>
   </g>
   <g id="FillBetweenPolyCollection_4">
    <defs>
     <path id="mb77c9470b0" d="M 485.409299 -227.930045 
L 485.389072 -227.930045 
L 485.392891 -230.726581 
L 485.397655 -233.523118 
L 485.398719 -236.319655 
L 485.395988 -239.116192 
L 485.38627 -241.912729 
L 485.375156 -244.709265 
L 485.367331 -247.505802 
L 485.349815 -250.302339 
L 485.330217 -253.098876 
L 485.314694 -255.895413 
L 485.293877 -258.691949 
L 485.251847 -261.488486 
L 485.15169 -264.285023 
L 484.985759 -267.08156 
L 484.745142 -269.878097 
L 484.43056 -272.674633 
L 484.094179 -275.47117 
L 483.686035 -278.267707 
L 483.182751 -281.064244 
L 482.515841 -283.860781 
L 481.516449 -286.657317 
L 480.239503 -289.453854 
L 478.873429 -292.250391 
L 477.414869 -295.046928 
L 475.805622 -297.843465 
L 473.997121 -300.640001 
L 472.239211 -303.436538 
L 470.468348 -306.233075 
L 468.427856 -309.029612 
L 466.638793 -311.826149 
L 465.48503 -314.622685 
L 465.029454 -317.419222 
L 464.993084 -320.215759 
L 465.222556 -323.012296 
L 466.410994 -325.808833 
L 468.715434 -328.605369 
L 471.290537 -331.401906 
L 473.62598 -334.198443 
L 475.662169 -336.99498 
L 477.341584 -339.791517 
L 478.769143 -342.588053 
L 480.006805 -345.38459 
L 481.007417 -348.181127 
L 481.890709 -350.977664 
L 482.663455 -353.7742 
L 483.216032 -356.570737 
L 483.612681 -359.367274 
L 483.946343 -362.163811 
L 484.304954 -364.960348 
L 484.609854 -367.756884 
L 484.800293 -370.553421 
L 484.928632 -373.349958 
L 484.999811 -376.146495 
L 485.076985 -378.943032 
L 485.175249 -381.739568 
L 485.229606 -384.536105 
L 485.251332 -387.332642 
L 485.288309 -390.129179 
L 485.338422 -392.925716 
L 485.371668 -395.722252 
L 485.37568 -398.518789 
L 485.369529 -401.315326 
L 485.37535 -404.111863 
L 485.377951 -406.9084 
L 485.373453 -409.704936 
L 485.375501 -412.501473 
L 485.380147 -415.29801 
L 485.387307 -418.094547 
L 485.395197 -420.891084 
L 485.3986 -423.68762 
L 485.399111 -426.484157 
L 485.398416 -429.280694 
L 485.393428 -432.077231 
L 485.382435 -434.873768 
L 485.38026 -437.670304 
L 485.390881 -440.466841 
L 485.39777 -443.263378 
L 485.399092 -446.059915 
L 485.399183 -448.856452 
L 485.399185 -451.652988 
L 485.399145 -454.449525 
L 485.398543 -457.246062 
L 485.395249 -460.042599 
L 485.389845 -462.839136 
L 485.390489 -465.635672 
L 485.394777 -468.432209 
L 485.392817 -471.228746 
L 485.389066 -474.025283 
L 485.392546 -476.82182 
L 485.397495 -479.618356 
L 485.399019 -482.414893 
L 485.399179 -485.21143 
L 485.399185 -488.007967 
L 485.399185 -490.804504 
L 485.39918 -493.60104 
L 485.399044 -496.397577 
L 485.397668 -499.194114 
L 485.392892 -501.990651 
L 485.389072 -504.787187 
L 485.409299 -504.787187 
L 485.409299 -504.787187 
L 485.40548 -501.990651 
L 485.400703 -499.194114 
L 485.399327 -496.397577 
L 485.399191 -493.60104 
L 485.399186 -490.804504 
L 485.399186 -488.007967 
L 485.399192 -485.21143 
L 485.399352 -482.414893 
L 485.400876 -479.618356 
L 485.405825 -476.82182 
L 485.409305 -474.025283 
L 485.405554 -471.228746 
L 485.403594 -468.432209 
L 485.407882 -465.635672 
L 485.408526 -462.839136 
L 485.403122 -460.042599 
L 485.399828 -457.246062 
L 485.399226 -454.449525 
L 485.399187 -451.652988 
L 485.399188 -448.856452 
L 485.399279 -446.059915 
L 485.400601 -443.263378 
L 485.40749 -440.466841 
L 485.418111 -437.670304 
L 485.415936 -434.873768 
L 485.404944 -432.077231 
L 485.399955 -429.280694 
L 485.39926 -426.484157 
L 485.399771 -423.68762 
L 485.403174 -420.891084 
L 485.411064 -418.094547 
L 485.418224 -415.29801 
L 485.42287 -412.501473 
L 485.424918 -409.704936 
L 485.42042 -406.9084 
L 485.423021 -404.111863 
L 485.428842 -401.315326 
L 485.422691 -398.518789 
L 485.426703 -395.722252 
L 485.459949 -392.925716 
L 485.510062 -390.129179 
L 485.547039 -387.332642 
L 485.568765 -384.536105 
L 485.623122 -381.739568 
L 485.721386 -378.943032 
L 485.79856 -376.146495 
L 485.869739 -373.349958 
L 485.998079 -370.553421 
L 486.188517 -367.756884 
L 486.493417 -364.960348 
L 486.852028 -362.163811 
L 487.18569 -359.367274 
L 487.58234 -356.570737 
L 488.134916 -353.7742 
L 488.907662 -350.977664 
L 489.790954 -348.181127 
L 490.791566 -345.38459 
L 492.029228 -342.588053 
L 493.456787 -339.791517 
L 495.136202 -336.99498 
L 497.172391 -334.198443 
L 499.507834 -331.401906 
L 502.082937 -328.605369 
L 504.387377 -325.808833 
L 505.575815 -323.012296 
L 505.805287 -320.215759 
L 505.768917 -317.419222 
L 505.313341 -314.622685 
L 504.159579 -311.826149 
L 502.370515 -309.029612 
L 500.330023 -306.233075 
L 498.559161 -303.436538 
L 496.80125 -300.640001 
L 494.992749 -297.843465 
L 493.383502 -295.046928 
L 491.924942 -292.250391 
L 490.558868 -289.453854 
L 489.281922 -286.657317 
L 488.28253 -283.860781 
L 487.615621 -281.064244 
L 487.112336 -278.267707 
L 486.704192 -275.47117 
L 486.367811 -272.674633 
L 486.053229 -269.878097 
L 485.812612 -267.08156 
L 485.646681 -264.285023 
L 485.546525 -261.488486 
L 485.504494 -258.691949 
L 485.483677 -255.895413 
L 485.468154 -253.098876 
L 485.448556 -250.302339 
L 485.43104 -247.505802 
L 485.423215 -244.709265 
L 485.412102 -241.912729 
L 485.402383 -239.116192 
L 485.399652 -236.319655 
L 485.400716 -233.523118 
L 485.40548 -230.726581 
L 485.409299 -227.930045 
z
" style="stroke: #b67a4b; stroke-opacity: 0.15; stroke-width: 1.1"/>
    </defs>
    <g clip-path="url(#p0342f3bf9b)">
     <use xlink:href="#mb77c9470b0" x="0" y="440.85625" style="fill: #f2e2d4; fill-opacity: 0.15; stroke: #b67a4b; stroke-opacity: 0.15; stroke-width: 1.1"/>
    </g>
   </g>
   <g id="matplotlib.axis_5">
    <g id="xtick_6">
     <g id="line2d_38">
      <g>
       <use xlink:href="#m73f05c2bc1" x="439.021682" y="180.869063" style="stroke: #000000; stroke-width: 0.72"/>
      </g>
     </g>
     <g id="text_25">
      <text style="font-size: 8px; font-family: 'Arial', 'Helvetica', 'Liberation Sans', 'DejaVu Sans', sans-serif; text-anchor: middle" x="439.021682" y="193.166563" transform="rotate(-0 439.021682 193.166563)">CDS</text>
     </g>
    </g>
    <g id="xtick_7">
     <g id="line2d_39">
      <g>
       <use xlink:href="#m73f05c2bc1" x="485.399186" y="180.869063" style="stroke: #000000; stroke-width: 0.72"/>
      </g>
     </g>
     <g id="text_26">
      <text style="font-size: 8px; font-family: 'Arial', 'Helvetica', 'Liberation Sans', 'DejaVu Sans', sans-serif; text-anchor: middle" x="485.399186" y="193.166563" transform="rotate(-0 485.399186 193.166563)">intron</text>
     </g>
    </g>
   </g>
   <g id="matplotlib.axis_6">
    <g id="ytick_12">
     <g id="line2d_40">
      <path d="M 415.83293 180.869063 
L 508.587938 180.869063 
" clip-path="url(#p0342f3bf9b)" style="fill: none; stroke-dasharray: 2.1,2.1; stroke-dashoffset: 0; stroke: #666666; stroke-opacity: 0.25; stroke-width: 0.7"/>
     </g>
     <g id="line2d_41">
      <g>
       <use xlink:href="#mea05f939c7" x="415.83293" y="180.869063" style="stroke: #000000; stroke-width: 0.72"/>
      </g>
     </g>
     <g id="text_27">
      <text style="font-size: 8px; font-family: 'Arial', 'Helvetica', 'Liberation Sans', 'DejaVu Sans', sans-serif; text-anchor: end" x="409.33293" y="183.767813" transform="rotate(-0 409.33293 183.767813)">0.2</text>
     </g>
    </g>
    <g id="ytick_13">
     <g id="line2d_42">
      <path d="M 415.83293 150.269063 
L 508.587938 150.269063 
" clip-path="url(#p0342f3bf9b)" style="fill: none; stroke-dasharray: 2.1,2.1; stroke-dashoffset: 0; stroke: #666666; stroke-opacity: 0.25; stroke-width: 0.7"/>
     </g>
     <g id="line2d_43">
      <g>
       <use xlink:href="#mea05f939c7" x="415.83293" y="150.269063" style="stroke: #000000; stroke-width: 0.72"/>
      </g>
     </g>
     <g id="text_28">
      <text style="font-size: 8px; font-family: 'Arial', 'Helvetica', 'Liberation Sans', 'DejaVu Sans', sans-serif; text-anchor: end" x="409.33293" y="153.167813" transform="rotate(-0 409.33293 153.167813)">0.3</text>
     </g>
    </g>
    <g id="ytick_14">
     <g id="line2d_44">
      <path d="M 415.83293 119.669063 
L 508.587938 119.669063 
" clip-path="url(#p0342f3bf9b)" style="fill: none; stroke-dasharray: 2.1,2.1; stroke-dashoffset: 0; stroke: #666666; stroke-opacity: 0.25; stroke-width: 0.7"/>
     </g>
     <g id="line2d_45">
      <g>
       <use xlink:href="#mea05f939c7" x="415.83293" y="119.669063" style="stroke: #000000; stroke-width: 0.72"/>
      </g>
     </g>
     <g id="text_29">
      <text style="font-size: 8px; font-family: 'Arial', 'Helvetica', 'Liberation Sans', 'DejaVu Sans', sans-serif; text-anchor: end" x="409.33293" y="122.567813" transform="rotate(-0 409.33293 122.567813)">0.4</text>
     </g>
    </g>
    <g id="ytick_15">
     <g id="line2d_46">
      <path d="M 415.83293 89.069063 
L 508.587938 89.069063 
" clip-path="url(#p0342f3bf9b)" style="fill: none; stroke-dasharray: 2.1,2.1; stroke-dashoffset: 0; stroke: #666666; stroke-opacity: 0.25; stroke-width: 0.7"/>
     </g>
     <g id="line2d_47">
      <g>
       <use xlink:href="#mea05f939c7" x="415.83293" y="89.069063" style="stroke: #000000; stroke-width: 0.72"/>
      </g>
     </g>
     <g id="text_30">
      <text style="font-size: 8px; font-family: 'Arial', 'Helvetica', 'Liberation Sans', 'DejaVu Sans', sans-serif; text-anchor: end" x="409.33293" y="91.967813" transform="rotate(-0 409.33293 91.967813)">0.5</text>
     </g>
    </g>
    <g id="ytick_16">
     <g id="line2d_48">
      <path d="M 415.83293 58.469063 
L 508.587938 58.469063 
" clip-path="url(#p0342f3bf9b)" style="fill: none; stroke-dasharray: 2.1,2.1; stroke-dashoffset: 0; stroke: #666666; stroke-opacity: 0.25; stroke-width: 0.7"/>
     </g>
     <g id="line2d_49">
      <g>
       <use xlink:href="#mea05f939c7" x="415.83293" y="58.469063" style="stroke: #000000; stroke-width: 0.72"/>
      </g>
     </g>
     <g id="text_31">
      <text style="font-size: 8px; font-family: 'Arial', 'Helvetica', 'Liberation Sans', 'DejaVu Sans', sans-serif; text-anchor: end" x="409.33293" y="61.367813" transform="rotate(-0 409.33293 61.367813)">0.6</text>
     </g>
    </g>
    <g id="ytick_17">
     <g id="line2d_50">
      <path d="M 415.83293 27.869062 
L 508.587938 27.869062 
" clip-path="url(#p0342f3bf9b)" style="fill: none; stroke-dasharray: 2.1,2.1; stroke-dashoffset: 0; stroke: #666666; stroke-opacity: 0.25; stroke-width: 0.7"/>
     </g>
     <g id="line2d_51">
      <g>
       <use xlink:href="#mea05f939c7" x="415.83293" y="27.869062" style="stroke: #000000; stroke-width: 0.72"/>
      </g>
     </g>
     <g id="text_32">
      <text style="font-size: 8px; font-family: 'Arial', 'Helvetica', 'Liberation Sans', 'DejaVu Sans', sans-serif; text-anchor: end" x="409.33293" y="30.767812" transform="rotate(-0 409.33293 30.767812)">0.7</text>
     </g>
    </g>
    <g id="text_33">
     <text style="font-size: 9px; font-family: 'Arial', 'Helvetica', 'Liberation Sans', 'DejaVu Sans', sans-serif; text-anchor: middle" x="392.34543" y="104.369062" transform="rotate(-90 392.34543 104.369062)">GC fraction</text>
    </g>
   </g>
   <g id="patch_18">
    <path d="M 433.456381 92.069063 
L 444.586982 92.069063 
L 444.586982 66.402396 
L 433.456381 66.402396 
L 433.456381 92.069063 
z
" clip-path="url(#p0342f3bf9b)" style="fill: #dde9d8; opacity: 0.35; stroke: #5b7f5a; stroke-width: 1.1; stroke-linejoin: miter"/>
   </g>
   <g id="line2d_52">
    <path d="M 439.021682 92.069063 
L 439.021682 130.536352 
" clip-path="url(#p0342f3bf9b)" style="fill: none; stroke: #666666; stroke-width: 0.8; stroke-linecap: square"/>
   </g>
   <g id="line2d_53">
    <path d="M 439.021682 66.402396 
L 439.021682 28.066907 
" clip-path="url(#p0342f3bf9b)" style="fill: none; stroke: #666666; stroke-width: 0.8; stroke-linecap: square"/>
   </g>
   <g id="line2d_54">
    <path d="M 436.239031 130.536352 
L 441.804332 130.536352 
" clip-path="url(#p0342f3bf9b)" style="fill: none; stroke: #666666; stroke-width: 0.8; stroke-linecap: square"/>
   </g>
   <g id="line2d_55">
    <path d="M 436.239031 28.066907 
L 441.804332 28.066907 
" clip-path="url(#p0342f3bf9b)" style="fill: none; stroke: #666666; stroke-width: 0.8; stroke-linecap: square"/>
   </g>
   <g id="patch_19">
    <path d="M 479.833885 134.069063 
L 490.964486 134.069063 
L 490.964486 111.392673 
L 479.833885 111.392673 
L 479.833885 134.069063 
z
" clip-path="url(#p0342f3bf9b)" style="fill: #f2e2d4; opacity: 0.35; stroke: #b67a4b; stroke-width: 1.1; stroke-linejoin: miter"/>
   </g>
   <g id="line2d_56">
    <path d="M 485.399186 134.069063 
L 485.399186 168.036804 
" clip-path="url(#p0342f3bf9b)" style="fill: none; stroke: #666666; stroke-width: 0.8; stroke-linecap: square"/>
   </g>
   <g id="line2d_57">
    <path d="M 485.399186 111.392673 
L 485.399186 77.478153 
" clip-path="url(#p0342f3bf9b)" style="fill: none; stroke: #666666; stroke-width: 0.8; stroke-linecap: square"/>
   </g>
   <g id="line2d_58">
    <path d="M 482.616535 168.036804 
L 488.181836 168.036804 
" clip-path="url(#p0342f3bf9b)" style="fill: none; stroke: #666666; stroke-width: 0.8; stroke-linecap: square"/>
   </g>
   <g id="line2d_59">
    <path d="M 482.616535 77.478153 
L 488.181836 77.478153 
" clip-path="url(#p0342f3bf9b)" style="fill: none; stroke: #666666; stroke-width: 0.8; stroke-linecap: square"/>
   </g>
   <g id="line2d_60">
    <path d="M 433.456381 79.133998 
L 444.586982 79.133998 
" clip-path="url(#p0342f3bf9b)" style="fill: none; stroke: #2a2a2a; stroke-width: 1.2"/>
   </g>
   <g id="line2d_61">
    <path d="M 479.833885 122.502691 
L 490.964486 122.502691 
" clip-path="url(#p0342f3bf9b)" style="fill: none; stroke: #2a2a2a; stroke-width: 1.2"/>
   </g>
   <g id="patch_20">
    <path d="M 415.83293 180.869063 
L 415.83293 27.869062 
" style="fill: none; stroke: #000000; stroke-width: 0.8; stroke-linejoin: miter; stroke-linecap: square"/>
   </g>
   <g id="patch_21">
    <path d="M 508.587938 180.869063 
L 508.587938 27.869062 
" style="fill: none; stroke: #000000; stroke-width: 0.8; stroke-linejoin: miter; stroke-linecap: square"/>
   </g>
   <g id="patch_22">
    <path d="M 415.83293 180.869063 
L 508.587938 180.869063 
" style="fill: none; stroke: #000000; stroke-width: 0.8; stroke-linejoin: miter; stroke-linecap: square"/>
   </g>
   <g id="patch_23">
    <path d="M 415.83293 27.869062 
L 508.587938 27.869062 
" style="fill: none; stroke: #000000; stroke-width: 0.8; stroke-linejoin: miter; stroke-linecap: square"/>
   </g>
  </g>
  <g id="axes_4">
   <g id="patch_24">
    <path d="M 39.435938 407.309062 
L 223.373834 407.309062 
L 223.373834 254.309062 
L 39.435938 254.309062 
z
" style="fill: #ffffff"/>
   </g>
   <g id="matplotlib.axis_7">
    <g id="xtick_8">
     <g id="line2d_62">
      <g>
       <use xlink:href="#m73f05c2bc1" x="39.435938" y="407.309062" style="stroke: #000000; stroke-width: 0.72"/>
      </g>
     </g>
     <g id="text_34">
      <text style="font-size: 8px; font-family: 'Arial', 'Helvetica', 'Liberation Sans', 'DejaVu Sans', sans-serif; text-anchor: middle" x="39.435938" y="419.606562" transform="rotate(-0 39.435938 419.606562)">2.0</text>
     </g>
    </g>
    <g id="xtick_9">
     <g id="line2d_63">
      <g>
       <use xlink:href="#m73f05c2bc1" x="70.092254" y="407.309062" style="stroke: #000000; stroke-width: 0.72"/>
      </g>
     </g>
     <g id="text_35">
      <text style="font-size: 8px; font-family: 'Arial', 'Helvetica', 'Liberation Sans', 'DejaVu Sans', sans-serif; text-anchor: middle" x="70.092254" y="419.606562" transform="rotate(-0 70.092254 419.606562)">2.5</text>
     </g>
    </g>
    <g id="xtick_10">
     <g id="line2d_64">
      <g>
       <use xlink:href="#m73f05c2bc1" x="100.74857" y="407.309062" style="stroke: #000000; stroke-width: 0.72"/>
      </g>
     </g>
     <g id="text_36">
      <text style="font-size: 8px; font-family: 'Arial', 'Helvetica', 'Liberation Sans', 'DejaVu Sans', sans-serif; text-anchor: middle" x="100.74857" y="419.606562" transform="rotate(-0 100.74857 419.606562)">3.0</text>
     </g>
    </g>
    <g id="xtick_11">
     <g id="line2d_65">
      <g>
       <use xlink:href="#m73f05c2bc1" x="131.404886" y="407.309062" style="stroke: #000000; stroke-width: 0.72"/>
      </g>
     </g>
     <g id="text_37">
      <text style="font-size: 8px; font-family: 'Arial', 'Helvetica', 'Liberation Sans', 'DejaVu Sans', sans-serif; text-anchor: middle" x="131.404886" y="419.606562" transform="rotate(-0 131.404886 419.606562)">3.5</text>
     </g>
    </g>
    <g id="xtick_12">
     <g id="line2d_66">
      <g>
       <use xlink:href="#m73f05c2bc1" x="162.061202" y="407.309062" style="stroke: #000000; stroke-width: 0.72"/>
      </g>
     </g>
     <g id="text_38">
      <text style="font-size: 8px; font-family: 'Arial', 'Helvetica', 'Liberation Sans', 'DejaVu Sans', sans-serif; text-anchor: middle" x="162.061202" y="419.606562" transform="rotate(-0 162.061202 419.606562)">4.0</text>
     </g>
    </g>
    <g id="xtick_13">
     <g id="line2d_67">
      <g>
       <use xlink:href="#m73f05c2bc1" x="192.717518" y="407.309062" style="stroke: #000000; stroke-width: 0.72"/>
      </g>
     </g>
     <g id="text_39">
      <text style="font-size: 8px; font-family: 'Arial', 'Helvetica', 'Liberation Sans', 'DejaVu Sans', sans-serif; text-anchor: middle" x="192.717518" y="419.606562" transform="rotate(-0 192.717518 419.606562)">4.5</text>
     </g>
    </g>
    <g id="xtick_14">
     <g id="line2d_68">
      <g>
       <use xlink:href="#m73f05c2bc1" x="223.373834" y="407.309062" style="stroke: #000000; stroke-width: 0.72"/>
      </g>
     </g>
     <g id="text_40">
      <text style="font-size: 8px; font-family: 'Arial', 'Helvetica', 'Liberation Sans', 'DejaVu Sans', sans-serif; text-anchor: middle" x="223.373834" y="419.606562" transform="rotate(-0 223.373834 419.606562)">5.0</text>
     </g>
    </g>
    <g id="text_41">
     <text style="font-size: 9px; font-family: 'Arial', 'Helvetica', 'Liberation Sans', 'DejaVu Sans', sans-serif; text-anchor: middle" x="131.404886" y="431.78875" transform="rotate(-0 131.404886 431.78875)">Period (bp)</text>
    </g>
   </g>
   <g id="matplotlib.axis_8">
    <g id="ytick_18">
     <g id="line2d_69">
      <path d="M 39.435938 400.370298 
L 223.373834 400.370298 
" clip-path="url(#p00ca2cd9ae)" style="fill: none; stroke-dasharray: 2.1,2.1; stroke-dashoffset: 0; stroke: #666666; stroke-opacity: 0.25; stroke-width: 0.7"/>
     </g>
     <g id="line2d_70">
      <g>
       <use xlink:href="#mea05f939c7" x="39.435938" y="400.370298" style="stroke: #000000; stroke-width: 0.72"/>
      </g>
     </g>
     <g id="text_42">
      <text style="font-size: 8px; font-family: 'Arial', 'Helvetica', 'Liberation Sans', 'DejaVu Sans', sans-serif; text-anchor: end" x="32.935938" y="403.269048" transform="rotate(-0 32.935938 403.269048)">1.0</text>
     </g>
    </g>
    <g id="ytick_19">
     <g id="line2d_71">
      <path d="M 39.435938 377.241082 
L 223.373834 377.241082 
" clip-path="url(#p00ca2cd9ae)" style="fill: none; stroke-dasharray: 2.1,2.1; stroke-dashoffset: 0; stroke: #666666; stroke-opacity: 0.25; stroke-width: 0.7"/>
     </g>
     <g id="line2d_72">
      <g>
       <use xlink:href="#mea05f939c7" x="39.435938" y="377.241082" style="stroke: #000000; stroke-width: 0.72"/>
      </g>
     </g>
     <g id="text_43">
      <text style="font-size: 8px; font-family: 'Arial', 'Helvetica', 'Liberation Sans', 'DejaVu Sans', sans-serif; text-anchor: end" x="32.935938" y="380.139832" transform="rotate(-0 32.935938 380.139832)">1.5</text>
     </g>
    </g>
    <g id="ytick_20">
     <g id="line2d_73">
      <path d="M 39.435938 354.111867 
L 223.373834 354.111867 
" clip-path="url(#p00ca2cd9ae)" style="fill: none; stroke-dasharray: 2.1,2.1; stroke-dashoffset: 0; stroke: #666666; stroke-opacity: 0.25; stroke-width: 0.7"/>
     </g>
     <g id="line2d_74">
      <g>
       <use xlink:href="#mea05f939c7" x="39.435938" y="354.111867" style="stroke: #000000; stroke-width: 0.72"/>
      </g>
     </g>
     <g id="text_44">
      <text style="font-size: 8px; font-family: 'Arial', 'Helvetica', 'Liberation Sans', 'DejaVu Sans', sans-serif; text-anchor: end" x="32.935938" y="357.010617" transform="rotate(-0 32.935938 357.010617)">2.0</text>
     </g>
    </g>
    <g id="ytick_21">
     <g id="line2d_75">
      <path d="M 39.435938 330.982652 
L 223.373834 330.982652 
" clip-path="url(#p00ca2cd9ae)" style="fill: none; stroke-dasharray: 2.1,2.1; stroke-dashoffset: 0; stroke: #666666; stroke-opacity: 0.25; stroke-width: 0.7"/>
     </g>
     <g id="line2d_76">
      <g>
       <use xlink:href="#mea05f939c7" x="39.435938" y="330.982652" style="stroke: #000000; stroke-width: 0.72"/>
      </g>
     </g>
     <g id="text_45">
      <text style="font-size: 8px; font-family: 'Arial', 'Helvetica', 'Liberation Sans', 'DejaVu Sans', sans-serif; text-anchor: end" x="32.935938" y="333.881402" transform="rotate(-0 32.935938 333.881402)">2.5</text>
     </g>
    </g>
    <g id="ytick_22">
     <g id="line2d_77">
      <path d="M 39.435938 307.853436 
L 223.373834 307.853436 
" clip-path="url(#p00ca2cd9ae)" style="fill: none; stroke-dasharray: 2.1,2.1; stroke-dashoffset: 0; stroke: #666666; stroke-opacity: 0.25; stroke-width: 0.7"/>
     </g>
     <g id="line2d_78">
      <g>
       <use xlink:href="#mea05f939c7" x="39.435938" y="307.853436" style="stroke: #000000; stroke-width: 0.72"/>
      </g>
     </g>
     <g id="text_46">
      <text style="font-size: 8px; font-family: 'Arial', 'Helvetica', 'Liberation Sans', 'DejaVu Sans', sans-serif; text-anchor: end" x="32.935938" y="310.752186" transform="rotate(-0 32.935938 310.752186)">3.0</text>
     </g>
    </g>
    <g id="ytick_23">
     <g id="line2d_79">
      <path d="M 39.435938 284.724221 
L 223.373834 284.724221 
" clip-path="url(#p00ca2cd9ae)" style="fill: none; stroke-dasharray: 2.1,2.1; stroke-dashoffset: 0; stroke: #666666; stroke-opacity: 0.25; stroke-width: 0.7"/>
     </g>
     <g id="line2d_80">
      <g>
       <use xlink:href="#mea05f939c7" x="39.435938" y="284.724221" style="stroke: #000000; stroke-width: 0.72"/>
      </g>
     </g>
     <g id="text_47">
      <text style="font-size: 8px; font-family: 'Arial', 'Helvetica', 'Liberation Sans', 'DejaVu Sans', sans-serif; text-anchor: end" x="32.935938" y="287.622971" transform="rotate(-0 32.935938 287.622971)">3.5</text>
     </g>
    </g>
    <g id="ytick_24">
     <g id="line2d_81">
      <path d="M 39.435938 261.595005 
L 223.373834 261.595005 
" clip-path="url(#p00ca2cd9ae)" style="fill: none; stroke-dasharray: 2.1,2.1; stroke-dashoffset: 0; stroke: #666666; stroke-opacity: 0.25; stroke-width: 0.7"/>
     </g>
     <g id="line2d_82">
      <g>
       <use xlink:href="#mea05f939c7" x="39.435938" y="261.595005" style="stroke: #000000; stroke-width: 0.72"/>
      </g>
     </g>
     <g id="text_48">
      <text style="font-size: 8px; font-family: 'Arial', 'Helvetica', 'Liberation Sans', 'DejaVu Sans', sans-serif; text-anchor: end" x="32.935938" y="264.493755" transform="rotate(-0 32.935938 264.493755)">4.0</text>
     </g>
    </g>
    <g id="text_49">
     <text style="font-size: 9px; font-family: 'Arial', 'Helvetica', 'Liberation Sans', 'DejaVu Sans', sans-serif; text-anchor: middle" x="15.948438" y="330.809062" transform="rotate(-90 15.948438 330.809062)">Normalized spectral power</text>
    </g>
   </g>
   <g id="line2d_83">
    <path d="M 223.373834 404.158988 
L 220.338556 404.443274 
L 215.896684 404.452066 
L 214.44481 404.36512 
L 213.006964 404.446586 
L 211.582944 404.168445 
L 210.17255 404.457522 
L 208.775589 404.421559 
L 206.021203 404.634968 
L 204.663407 404.367266 
L 203.318301 404.374078 
L 201.985707 404.156624 
L 200.665452 404.359678 
L 199.357366 404.446805 
L 198.06128 404.177315 
L 194.243398 404.046697 
L 192.993701 403.745173 
L 191.755212 404.029869 
L 188.105506 404.053006 
L 185.725727 404.041512 
L 184.551425 403.811067 
L 183.387335 404.011593 
L 182.233324 403.386149 
L 181.08926 403.666818 
L 179.955018 403.332618 
L 178.830469 403.245217 
L 176.609962 402.647654 
L 175.513763 402.831178 
L 174.426775 401.990363 
L 173.348883 402.412176 
L 171.219936 402.865047 
L 170.168658 402.903526 
L 169.126032 403.142382 
L 168.091953 402.863731 
L 164.039029 403.034331 
L 163.046144 402.721464 
L 162.061202 402.244181 
L 160.114769 402.970749 
L 159.153093 403.038893 
L 158.198989 402.82019 
L 157.252368 403.017291 
L 155.381227 402.779116 
L 154.456535 403.060377 
L 153.538983 403.123784 
L 151.724973 402.935524 
L 150.828353 402.765708 
L 149.938552 402.957487 
L 149.055492 402.629217 
L 148.179097 403.086537 
L 147.309291 402.895995 
L 146.446 402.943299 
L 145.589152 403.201531 
L 144.738674 402.879769 
L 143.056549 402.863208 
L 141.39907 402.754706 
L 140.579404 402.023641 
L 139.765699 402.635315 
L 138.957891 402.702232 
L 138.155916 402.503053 
L 136.569212 402.400322 
L 135.78436 402.194319 
L 135.005094 402.372621 
L 134.231355 402.057564 
L 133.463084 402.032644 
L 132.700223 401.215291 
L 131.942716 401.531752 
L 131.190506 401.472019 
L 130.443538 401.636832 
L 128.233543 401.473626 
L 127.507004 401.336964 
L 126.785441 401.392574 
L 126.068804 401.31992 
L 125.357041 400.925293 
L 124.650104 401.375043 
L 123.947944 401.218289 
L 123.250512 400.712434 
L 122.557761 400.887236 
L 121.869644 400.467235 
L 121.186114 400.742236 
L 120.507126 400.70443 
L 119.832634 400.456 
L 118.496963 400.63 
L 117.835697 400.396006 
L 117.178752 400.466418 
L 116.526088 400.303961 
L 115.877661 400.288748 
L 115.233431 400.018856 
L 113.957401 399.891875 
L 113.32552 399.604433 
L 112.697677 399.578027 
L 110.83799 399.060859 
L 110.225917 398.439719 
L 109.617693 398.641313 
L 108.412649 397.906792 
L 107.222574 395.955384 
L 106.633064 395.326297 
L 105.464926 391.886539 
L 104.886232 389.80901 
L 104.311078 386.486197 
L 103.73943 382.04909 
L 103.171257 375.643098 
L 102.606528 367.402061 
L 102.045212 356.088538 
L 101.487276 337.721072 
L 100.932692 271.792669 
L 99.833456 344.705725 
L 99.288745 360.001522 
L 98.747267 370.117672 
L 98.208993 377.741784 
L 97.141944 387.550062 
L 96.613114 390.230677 
L 96.087376 392.303474 
L 95.564703 393.851751 
L 95.045069 395.029385 
L 94.528448 395.489198 
L 94.014813 396.292661 
L 93.504138 396.685727 
L 92.996398 397.303215 
L 92.491568 397.627427 
L 91.989622 397.478611 
L 91.490537 397.937266 
L 90.010199 398.473384 
L 89.522313 398.335204 
L 88.075009 398.51876 
L 87.59795 398.733944 
L 87.12354 398.753461 
L 86.65176 398.629408 
L 86.182585 398.827664 
L 85.715996 397.450721 
L 85.25197 398.42621 
L 84.790487 398.647554 
L 84.331526 398.596582 
L 83.875066 398.689761 
L 83.421087 398.533922 
L 82.969568 398.822079 
L 82.52049 398.848072 
L 82.073833 399.181206 
L 81.629577 399.19504 
L 81.187703 399.044031 
L 80.748192 399.318109 
L 79.876184 399.33905 
L 79.44365 399.646308 
L 79.013404 399.257454 
L 78.585428 399.307998 
L 78.159705 399.689591 
L 77.736217 399.049837 
L 77.314946 399.546364 
L 76.895875 399.508269 
L 76.064263 399.830306 
L 75.241247 400.175812 
L 74.832921 400.144036 
L 74.426694 399.987364 
L 74.022551 400.050574 
L 73.620474 400.397213 
L 73.220449 400.235013 
L 72.82246 400.359418 
L 72.426491 400.338447 
L 70.862513 400.935072 
L 70.476418 400.888399 
L 70.092254 400.634187 
L 68.9512 400.983402 
L 68.574614 400.935868 
L 68.199888 401.076259 
L 67.827009 401.000389 
L 67.455961 401.299823 
L 67.086732 401.202369 
L 66.353679 401.370783 
L 65.989827 401.250798 
L 65.627742 401.350749 
L 65.26741 401.188012 
L 64.908819 401.369597 
L 64.196808 401.101375 
L 63.843364 400.86682 
L 63.491611 401.246086 
L 63.141538 401.352607 
L 61.757794 401.170446 
L 61.415938 401.321131 
L 60.73704 401.218764 
L 60.399976 400.972403 
L 60.064487 400.377154 
L 59.730562 400.352733 
L 59.39819 401.166073 
L 59.06736 401.662546 
L 58.738062 401.323904 
L 58.410286 401.70663 
L 58.084019 401.449213 
L 57.759253 401.847661 
L 56.793852 402.227044 
L 56.474983 401.919875 
L 55.841585 401.793321 
L 55.527036 401.946305 
L 55.213906 401.966421 
L 54.591869 401.730479 
L 54.282943 402.251109 
L 53.669227 402.384959 
L 53.36442 402.210266 
L 53.060967 402.302663 
L 52.75886 402.025179 
L 52.458089 402.291725 
L 52.158647 402.101751 
L 51.860524 402.40554 
L 51.563711 402.300729 
L 51.2682 402.44298 
L 50.389393 402.200411 
L 50.099004 402.346751 
L 49.809875 402.363132 
L 49.521998 402.113937 
L 49.235365 402.246193 
L 48.949967 402.170804 
L 48.382845 402.351684 
L 48.101106 401.48498 
L 47.820571 402.191389 
L 47.263082 402.474284 
L 46.986113 402.316989 
L 46.710318 401.961959 
L 46.162218 402.202928 
L 45.889899 402.023247 
L 45.618724 401.319666 
L 45.079778 401.935564 
L 44.545324 402.00246 
L 43.751941 401.828926 
L 43.489665 402.022899 
L 42.968353 401.654104 
L 42.451313 401.327823 
L 42.194379 401.86633 
L 41.938494 401.994711 
L 41.683651 401.675724 
L 41.429844 401.859376 
L 41.177067 401.748955 
L 40.925313 401.967013 
L 40.674577 401.767542 
L 40.424851 401.830078 
L 40.17613 401.621748 
L 39.68168 400.844927 
L 39.435938 399.652406 
L 39.435938 399.652406 
" clip-path="url(#p00ca2cd9ae)" style="fill: none; stroke: #5b7f5a; stroke-width: 1.2; stroke-linecap: square"/>
   </g>
   <g id="line2d_84">
    <path d="M 223.373834 399.320593 
L 221.848645 401.527857 
L 220.338556 401.607763 
L 218.843344 401.825966 
L 217.362792 402.259357 
L 215.896684 401.848634 
L 214.44481 401.85175 
L 213.006964 402.10181 
L 210.17255 401.582316 
L 208.775589 401.920132 
L 207.391869 402.044868 
L 206.021203 402.396053 
L 204.663407 402.29654 
L 203.318301 402.036433 
L 201.985707 401.984426 
L 200.665452 402.355986 
L 199.357366 402.18952 
L 196.77703 402.732371 
L 195.504456 402.574266 
L 194.243398 402.929598 
L 192.993701 402.462426 
L 191.755212 402.822705 
L 190.527781 402.777218 
L 189.311261 403.025931 
L 186.910375 403.003414 
L 185.725727 402.811672 
L 184.551425 402.952708 
L 183.387335 402.791132 
L 182.233324 402.830364 
L 181.08926 403.076114 
L 179.955018 402.858072 
L 178.830469 403.113105 
L 177.715491 402.677005 
L 176.609962 402.837929 
L 175.513763 402.370114 
L 174.426775 401.586938 
L 173.348883 402.753257 
L 172.279974 402.673275 
L 171.219936 402.791393 
L 169.126032 402.380067 
L 168.091953 402.151806 
L 167.066315 402.275637 
L 166.049016 401.975539 
L 164.039029 401.181875 
L 163.046144 400.280329 
L 162.061202 396.292963 
L 161.084108 400.227083 
L 160.114769 400.778672 
L 157.252368 401.765329 
L 156.313143 401.568597 
L 154.456535 402.22115 
L 153.538983 402.019977 
L 152.628489 402.276603 
L 151.724973 401.509068 
L 150.828353 401.958085 
L 149.938552 401.83923 
L 149.055492 402.382229 
L 145.589152 402.085085 
L 144.738674 402.406038 
L 143.894496 402.368295 
L 143.056549 401.937128 
L 142.224762 402.256283 
L 141.39907 402.088142 
L 140.579404 402.539183 
L 139.765699 402.376781 
L 138.957891 402.035876 
L 138.155916 402.159922 
L 137.35971 402.597821 
L 136.569212 402.12803 
L 135.78436 402.122041 
L 135.005094 402.254979 
L 134.231355 402.090441 
L 133.463084 402.380097 
L 132.700223 402.092576 
L 131.942716 402.135963 
L 131.190506 401.463675 
L 130.443538 401.827501 
L 128.96511 402.072681 
L 128.233543 401.898285 
L 127.507004 401.597455 
L 126.785441 401.74407 
L 126.068804 402.446326 
L 125.357041 401.970433 
L 123.947944 401.770599 
L 123.250512 401.2698 
L 122.557761 401.714499 
L 121.186114 400.736148 
L 120.507126 401.467743 
L 119.832634 401.187548 
L 119.162595 401.146778 
L 118.496963 400.60676 
L 117.835697 401.028057 
L 117.178752 400.931466 
L 116.526088 400.988315 
L 115.233431 400.649605 
L 113.957401 400.524128 
L 113.32552 400.168458 
L 112.697677 400.317016 
L 111.45395 399.671784 
L 110.225917 400.510498 
L 109.617693 399.747128 
L 109.013282 399.950036 
L 108.412649 400.020595 
L 107.815758 399.802634 
L 107.222574 399.891396 
L 106.633064 399.794732 
L 106.047192 399.305221 
L 105.464926 398.341861 
L 104.886232 399.00914 
L 103.73943 398.338046 
L 103.171257 398.602168 
L 102.606528 397.226869 
L 102.045212 397.282686 
L 101.487276 395.689726 
L 100.932692 389.856476 
L 99.833456 395.380354 
L 99.288745 397.13348 
L 98.747267 397.895496 
L 98.208993 398.115784 
L 97.673895 398.556391 
L 97.141944 397.810589 
L 96.613114 398.57848 
L 96.087376 398.818146 
L 95.564703 398.464985 
L 95.045069 398.823569 
L 94.528448 398.972776 
L 93.504138 398.868451 
L 92.996398 398.124729 
L 92.491568 398.794613 
L 91.989622 398.281467 
L 91.490537 399.149474 
L 90.994287 398.975912 
L 90.500849 398.535548 
L 90.010199 398.55363 
L 89.522313 398.444484 
L 89.037168 399.187944 
L 88.554741 398.891727 
L 88.075009 398.313669 
L 87.59795 398.06553 
L 87.12354 398.714756 
L 86.65176 398.801149 
L 86.182585 399.116804 
L 85.715996 398.80158 
L 85.25197 398.650082 
L 84.790487 398.81172 
L 84.331526 399.287587 
L 83.875066 399.210105 
L 83.421087 398.91669 
L 82.969568 399.373319 
L 82.073833 399.203191 
L 81.629577 399.359841 
L 81.187703 399.158623 
L 80.748192 399.411149 
L 80.311026 397.986775 
L 79.876184 399.229189 
L 79.44365 399.517368 
L 79.013404 398.986907 
L 78.585428 399.489546 
L 78.159705 399.306323 
L 77.736217 399.404581 
L 77.314946 399.168344 
L 76.895875 399.240962 
L 76.478986 399.055107 
L 76.064263 399.450913 
L 74.832921 399.828107 
L 74.022551 399.526766 
L 73.620474 399.862582 
L 73.220449 399.37824 
L 72.82246 399.600074 
L 72.426491 398.968804 
L 72.032527 399.568792 
L 71.640552 399.709442 
L 71.250553 399.188052 
L 70.862513 399.459644 
L 70.476418 399.021491 
L 70.092254 396.031503 
L 69.710005 399.368724 
L 69.329659 399.082924 
L 68.9512 399.545928 
L 68.574614 399.639725 
L 68.199888 399.932658 
L 67.827009 399.669719 
L 67.455961 399.613865 
L 66.719309 400.220987 
L 65.989827 399.786351 
L 65.627742 400.194225 
L 65.26741 399.922369 
L 64.551956 399.948207 
L 64.196808 400.177125 
L 63.843364 399.52068 
L 63.491611 399.943442 
L 63.141538 399.823293 
L 62.793131 399.833482 
L 62.446379 399.201191 
L 62.101271 399.783544 
L 61.757794 400.043007 
L 61.07569 399.776406 
L 60.73704 400.129838 
L 60.399976 399.779059 
L 60.064487 399.612071 
L 59.730562 399.307576 
L 59.39819 399.807381 
L 59.06736 399.716245 
L 58.738062 400.038952 
L 58.410286 399.861977 
L 58.084019 399.879799 
L 57.759253 399.400646 
L 57.114179 399.774479 
L 56.793852 399.830972 
L 56.474983 399.707644 
L 56.157564 399.839525 
L 55.841585 399.80442 
L 55.527036 399.425033 
L 55.213906 399.397702 
L 54.902187 398.960722 
L 54.591869 399.281406 
L 54.282943 399.144036 
L 53.975398 399.312777 
L 53.36442 398.954661 
L 53.060967 398.493122 
L 51.563711 398.76568 
L 51.2682 398.51091 
L 50.973982 398.861805 
L 50.389393 398.577603 
L 50.099004 398.472794 
L 49.809875 397.995413 
L 49.521998 397.927266 
L 49.235365 398.071502 
L 48.949967 397.638553 
L 48.665796 397.901993 
L 48.382845 397.390784 
L 48.101106 397.505392 
L 47.820571 397.424018 
L 46.986113 396.693327 
L 46.710318 396.628606 
L 46.435688 396.132085 
L 45.348686 395.346909 
L 45.079778 393.782936 
L 44.811993 394.442647 
L 44.545324 394.020081 
L 44.279763 393.297412 
L 44.015304 393.179792 
L 43.489665 392.492088 
L 43.228471 392.008825 
L 42.968353 390.804973 
L 42.709302 390.438524 
L 42.451313 388.904077 
L 42.194379 388.693941 
L 41.177067 382.59447 
L 40.925313 380.681547 
L 40.424851 371.986199 
L 39.928408 359.96928 
L 39.68168 348.672407 
L 39.435938 304.317382 
L 39.435938 304.317382 
" clip-path="url(#p00ca2cd9ae)" style="fill: none; stroke: #b67a4b; stroke-width: 1.2; stroke-linecap: square"/>
   </g>
   <g id="line2d_85">
    <path d="M 100.74857 407.309062 
L 100.74857 254.309062 
" clip-path="url(#p00ca2cd9ae)" style="fill: none; stroke-dasharray: 2.7,2.7; stroke-dashoffset: 0; stroke: #666666; stroke-opacity: 0.7; stroke-width: 0.9"/>
   </g>
   <g id="patch_25">
    <path d="M 39.435938 407.309063 
L 39.435938 254.309063 
" style="fill: none; stroke: #000000; stroke-width: 0.8; stroke-linejoin: miter; stroke-linecap: square"/>
   </g>
   <g id="patch_26">
    <path d="M 223.373834 407.309063 
L 223.373834 254.309063 
" style="fill: none; stroke: #000000; stroke-width: 0.8; stroke-linejoin: miter; stroke-linecap: square"/>
   </g>
   <g id="patch_27">
    <path d="M 39.435938 407.309062 
L 223.373834 407.309062 
" style="fill: none; stroke: #000000; stroke-width: 0.8; stroke-linejoin: miter; stroke-linecap: square"/>
   </g>
   <g id="patch_28">
    <path d="M 39.435938 254.309062 
L 223.373834 254.309062 
" style="fill: none; stroke: #000000; stroke-width: 0.8; stroke-linejoin: miter; stroke-linecap: square"/>
   </g>
   <g id="patch_29">
    <path d="M 144.724579 253.736965 
Q 123.752103 262.384064 103.606527 270.690228 
" style="fill: none; stroke: #666666; stroke-width: 0.8; stroke-linecap: round"/>
    <path d="M 106.951799 270.933444 
L 103.606527 270.690228 
L 105.808263 268.15994 
" style="fill: none; stroke: #666666; stroke-width: 0.8; stroke-linecap: round"/>
   </g>
   <g id="text_50">
    <text style="font-size: 7.5px; font-family: 'Arial', 'Helvetica', 'Liberation Sans', 'DejaVu Sans', sans-serif; text-anchor: start; fill: #666666" x="134.470518" y="249.420125" transform="rotate(-0 134.470518 249.420125)">3-bp periodicity</text>
   </g>
   <g id="text_51">
    <text style="font-weight: 700; font-size: 9px; font-family: 'Arial', 'Helvetica', 'Liberation Sans', 'DejaVu Sans', sans-serif; text-anchor: start" x="13.684632" y="240.201562" transform="rotate(-0 13.684632 240.201562)">C  3-bp periodicity</text>
   </g>
   <g id="legend_1">
    <g id="line2d_86">
     <path d="M 173.763834 264.506562 
L 181.763834 264.506562 
L 189.763834 264.506562 
" style="fill: none; stroke: #5b7f5a; stroke-width: 1.2; stroke-linecap: square"/>
    </g>
    <g id="text_52">
     <text style="font-size: 8px; font-family: 'Arial', 'Helvetica', 'Liberation Sans', 'DejaVu Sans', sans-serif; text-anchor: start" x="196.163834" y="267.306562" transform="rotate(-0 196.163834 267.306562)">CDS</text>
    </g>
    <g id="line2d_87">
     <path d="M 173.763834 275.964063 
L 181.763834 275.964063 
L 189.763834 275.964063 
" style="fill: none; stroke: #b67a4b; stroke-width: 1.2; stroke-linecap: square"/>
    </g>
    <g id="text_53">
     <text style="font-size: 8px; font-family: 'Arial', 'Helvetica', 'Liberation Sans', 'DejaVu Sans', sans-serif; text-anchor: start" x="196.163834" y="278.764063" transform="rotate(-0 196.163834 278.764063)">intron</text>
    </g>
   </g>
  </g>
  <g id="axes_5">
   <g id="patch_30">
    <path d="M 291.541219 407.309062 
L 508.587938 407.309062 
L 508.587938 254.309062 
L 291.541219 254.309062 
z
" style="fill: #ffffff"/>
   </g>
   <g id="matplotlib.axis_9">
    <g id="xtick_15">
     <g id="line2d_88">
      <g>
       <use xlink:href="#m73f05c2bc1" x="301.406979" y="407.309062" style="stroke: #000000; stroke-width: 0.72"/>
      </g>
     </g>
     <g id="text_54">
      <text style="font-size: 8px; font-family: 'Arial', 'Helvetica', 'Liberation Sans', 'DejaVu Sans', sans-serif; text-anchor: middle" x="301.406979" y="419.606562" transform="rotate(-0 301.406979 419.606562)">high-sim removed</text>
     </g>
    </g>
    <g id="xtick_16">
     <g id="line2d_89">
      <g>
       <use xlink:href="#m73f05c2bc1" x="498.722178" y="407.309062" style="stroke: #000000; stroke-width: 0.72"/>
      </g>
     </g>
     <g id="text_55">
      <text style="font-size: 8px; font-family: 'Arial', 'Helvetica', 'Liberation Sans', 'DejaVu Sans', sans-serif; text-anchor: middle" x="498.722178" y="419.606562" transform="rotate(-0 498.722178 419.606562)">≥95% removed</text>
     </g>
    </g>
   </g>
   <g id="matplotlib.axis_10">
    <g id="ytick_25">
     <g id="line2d_90">
      <path d="M 291.541219 407.309062 
L 508.587938 407.309062 
" clip-path="url(#pc1a0816891)" style="fill: none; stroke-dasharray: 2.1,2.1; stroke-dashoffset: 0; stroke: #666666; stroke-opacity: 0.25; stroke-width: 0.7"/>
     </g>
     <g id="line2d_91">
      <g>
       <use xlink:href="#mea05f939c7" x="291.541219" y="407.309062" style="stroke: #000000; stroke-width: 0.72"/>
      </g>
     </g>
     <g id="text_56">
      <text style="font-size: 8px; font-family: 'Arial', 'Helvetica', 'Liberation Sans', 'DejaVu Sans', sans-serif; text-anchor: end" x="285.041219" y="410.207812" transform="rotate(-0 285.041219 410.207812)">−0.0005</text>
     </g>
    </g>
    <g id="ytick_26">
     <g id="line2d_92">
      <path d="M 291.541219 385.45192 
L 508.587938 385.45192 
" clip-path="url(#pc1a0816891)" style="fill: none; stroke-dasharray: 2.1,2.1; stroke-dashoffset: 0; stroke: #666666; stroke-opacity: 0.25; stroke-width: 0.7"/>
     </g>
     <g id="line2d_93">
      <g>
       <use xlink:href="#mea05f939c7" x="291.541219" y="385.45192" style="stroke: #000000; stroke-width: 0.72"/>
      </g>
     </g>
     <g id="text_57">
      <text style="font-size: 8px; font-family: 'Arial', 'Helvetica', 'Liberation Sans', 'DejaVu Sans', sans-serif; text-anchor: end" x="285.041219" y="388.35067" transform="rotate(-0 285.041219 388.35067)">−0.0004</text>
     </g>
    </g>
    <g id="ytick_27">
     <g id="line2d_94">
      <path d="M 291.541219 363.594777 
L 508.587938 363.594777 
" clip-path="url(#pc1a0816891)" style="fill: none; stroke-dasharray: 2.1,2.1; stroke-dashoffset: 0; stroke: #666666; stroke-opacity: 0.25; stroke-width: 0.7"/>
     </g>
     <g id="line2d_95">
      <g>
       <use xlink:href="#mea05f939c7" x="291.541219" y="363.594777" style="stroke: #000000; stroke-width: 0.72"/>
      </g>
     </g>
     <g id="text_58">
      <text style="font-size: 8px; font-family: 'Arial', 'Helvetica', 'Liberation Sans', 'DejaVu Sans', sans-serif; text-anchor: end" x="285.041219" y="366.493527" transform="rotate(-0 285.041219 366.493527)">−0.0003</text>
     </g>
    </g>
    <g id="ytick_28">
     <g id="line2d_96">
      <path d="M 291.541219 341.737634 
L 508.587938 341.737634 
" clip-path="url(#pc1a0816891)" style="fill: none; stroke-dasharray: 2.1,2.1; stroke-dashoffset: 0; stroke: #666666; stroke-opacity: 0.25; stroke-width: 0.7"/>
     </g>
     <g id="line2d_97">
      <g>
       <use xlink:href="#mea05f939c7" x="291.541219" y="341.737634" style="stroke: #000000; stroke-width: 0.72"/>
      </g>
     </g>
     <g id="text_59">
      <text style="font-size: 8px; font-family: 'Arial', 'Helvetica', 'Liberation Sans', 'DejaVu Sans', sans-serif; text-anchor: end" x="285.041219" y="344.636384" transform="rotate(-0 285.041219 344.636384)">−0.0002</text>
     </g>
    </g>
    <g id="ytick_29">
     <g id="line2d_98">
      <path d="M 291.541219 319.880491 
L 508.587938 319.880491 
" clip-path="url(#pc1a0816891)" style="fill: none; stroke-dasharray: 2.1,2.1; stroke-dashoffset: 0; stroke: #666666; stroke-opacity: 0.25; stroke-width: 0.7"/>
     </g>
     <g id="line2d_99">
      <g>
       <use xlink:href="#mea05f939c7" x="291.541219" y="319.880491" style="stroke: #000000; stroke-width: 0.72"/>
      </g>
     </g>
     <g id="text_60">
      <text style="font-size: 8px; font-family: 'Arial', 'Helvetica', 'Liberation Sans', 'DejaVu Sans', sans-serif; text-anchor: end" x="285.041219" y="322.779241" transform="rotate(-0 285.041219 322.779241)">−0.0001</text>
     </g>
    </g>
    <g id="ytick_30">
     <g id="line2d_100">
      <path d="M 291.541219 298.023348 
L 508.587938 298.023348 
" clip-path="url(#pc1a0816891)" style="fill: none; stroke-dasharray: 2.1,2.1; stroke-dashoffset: 0; stroke: #666666; stroke-opacity: 0.25; stroke-width: 0.7"/>
     </g>
     <g id="line2d_101">
      <g>
       <use xlink:href="#mea05f939c7" x="291.541219" y="298.023348" style="stroke: #000000; stroke-width: 0.72"/>
      </g>
     </g>
     <g id="text_61">
      <text style="font-size: 8px; font-family: 'Arial', 'Helvetica', 'Liberation Sans', 'DejaVu Sans', sans-serif; text-anchor: end" x="285.041219" y="300.922098" transform="rotate(-0 285.041219 300.922098)">0.0000</text>
     </g>
    </g>
    <g id="ytick_31">
     <g id="line2d_102">
      <path d="M 291.541219 276.166205 
L 508.587938 276.166205 
" clip-path="url(#pc1a0816891)" style="fill: none; stroke-dasharray: 2.1,2.1; stroke-dashoffset: 0; stroke: #666666; stroke-opacity: 0.25; stroke-width: 0.7"/>
     </g>
     <g id="line2d_103">
      <g>
       <use xlink:href="#mea05f939c7" x="291.541219" y="276.166205" style="stroke: #000000; stroke-width: 0.72"/>
      </g>
     </g>
     <g id="text_62">
      <text style="font-size: 8px; font-family: 'Arial', 'Helvetica', 'Liberation Sans', 'DejaVu Sans', sans-serif; text-anchor: end" x="285.041219" y="279.064955" transform="rotate(-0 285.041219 279.064955)">0.0001</text>
     </g>
    </g>
    <g id="ytick_32">
     <g id="line2d_104">
      <path d="M 291.541219 254.309062 
L 508.587938 254.309062 
" clip-path="url(#pc1a0816891)" style="fill: none; stroke-dasharray: 2.1,2.1; stroke-dashoffset: 0; stroke: #666666; stroke-opacity: 0.25; stroke-width: 0.7"/>
     </g>
     <g id="line2d_105">
      <g>
       <use xlink:href="#mea05f939c7" x="291.541219" y="254.309062" style="stroke: #000000; stroke-width: 0.72"/>
      </g>
     </g>
     <g id="text_63">
      <text style="font-size: 8px; font-family: 'Arial', 'Helvetica', 'Liberation Sans', 'DejaVu Sans', sans-serif; text-anchor: end" x="285.041219" y="257.207812" transform="rotate(-0 285.041219 257.207812)">0.0002</text>
     </g>
    </g>
    <g id="text_64">
     <text style="font-size: 9px; font-family: 'Arial', 'Helvetica', 'Liberation Sans', 'DejaVu Sans', sans-serif; text-anchor: middle" x="250.034969" y="330.809062" transform="rotate(-90 250.034969 330.809062)">Δ Macro-F1</text>
    </g>
   </g>
   <g id="line2d_106">
    <path d="M 291.541219 298.023348 
L 508.587938 298.023348 
" clip-path="url(#pc1a0816891)" style="fill: none; stroke-dasharray: 2.7,2.7; stroke-dashoffset: 0; stroke: #666666; stroke-opacity: 0.85; stroke-width: 0.9"/>
   </g>
   <g id="line2d_107">
    <path d="M 301.406979 272.23192 
L 498.722178 385.670491 
" clip-path="url(#pc1a0816891)" style="fill: none; stroke: #0072b2; stroke-width: 1.2; stroke-linecap: square"/>
    <defs>
     <path id="m7601bed2fc" d="M 0 2.4 
C 0.636487 2.4 1.246992 2.147121 1.697056 1.697056 
C 2.147121 1.246992 2.4 0.636487 2.4 0 
C 2.4 -0.636487 2.147121 -1.246992 1.697056 -1.697056 
C 1.246992 -2.147121 0.636487 -2.4 0 -2.4 
C -0.636487 -2.4 -1.246992 -2.147121 -1.697056 -1.697056 
C -2.147121 -1.246992 -2.4 -0.636487 -2.4 0 
C -2.4 0.636487 -2.147121 1.246992 -1.697056 1.697056 
C -1.246992 2.147121 -0.636487 2.4 0 2.4 
z
" style="stroke: #0072b2"/>
    </defs>
    <g clip-path="url(#pc1a0816891)">
     <use xlink:href="#m7601bed2fc" x="301.406979" y="272.23192" style="fill: #0072b2; stroke: #0072b2"/>
     <use xlink:href="#m7601bed2fc" x="498.722178" y="385.670491" style="fill: #0072b2; stroke: #0072b2"/>
    </g>
   </g>
   <g id="line2d_108">
    <path d="M 301.406979 282.067634 
L 498.722178 360.097634 
" clip-path="url(#pc1a0816891)" style="fill: none; stroke: #d55e00; stroke-width: 1.2; stroke-linecap: square"/>
    <defs>
     <path id="m4eaad46c34" d="M 0 2.4 
C 0.636487 2.4 1.246992 2.147121 1.697056 1.697056 
C 2.147121 1.246992 2.4 0.636487 2.4 0 
C 2.4 -0.636487 2.147121 -1.246992 1.697056 -1.697056 
C 1.246992 -2.147121 0.636487 -2.4 0 -2.4 
C -0.636487 -2.4 -1.246992 -2.147121 -1.697056 -1.697056 
C -2.147121 -1.246992 -2.4 -0.636487 -2.4 0 
C -2.4 0.636487 -2.147121 1.246992 -1.697056 1.697056 
C -1.246992 2.147121 -0.636487 2.4 0 2.4 
z
" style="stroke: #d55e00"/>
    </defs>
    <g clip-path="url(#pc1a0816891)">
     <use xlink:href="#m4eaad46c34" x="301.406979" y="282.067634" style="fill: #d55e00; stroke: #d55e00"/>
     <use xlink:href="#m4eaad46c34" x="498.722178" y="360.097634" style="fill: #d55e00; stroke: #d55e00"/>
    </g>
   </g>
   <g id="patch_31">
    <path d="M 291.541219 407.309062 
L 291.541219 254.309062 
" style="fill: none; stroke: #000000; stroke-width: 0.8; stroke-linejoin: miter; stroke-linecap: square"/>
   </g>
   <g id="patch_32">
    <path d="M 508.587938 407.309062 
L 508.587938 254.309062 
" style="fill: none; stroke: #000000; stroke-width: 0.8; stroke-linejoin: miter; stroke-linecap: square"/>
   </g>
   <g id="patch_33">
    <path d="M 291.541219 407.309062 
L 508.587938 407.309062 
" style="fill: none; stroke: #000000; stroke-width: 0.8; stroke-linejoin: miter; stroke-linecap: square"/>
   </g>
   <g id="patch_34">
    <path d="M 291.541219 254.309062 
L 508.587938 254.309062 
" style="fill: none; stroke: #000000; stroke-width: 0.8; stroke-linejoin: miter; stroke-linecap: square"/>
   </g>
   <g id="text_65">
    <text style="font-weight: 700; font-size: 9px; font-family: 'Arial', 'Helvetica', 'Liberation Sans', 'DejaVu Sans', sans-serif; text-anchor: start" x="261.154679" y="240.201562" transform="rotate(-0 261.154679 240.201562)">D  Similarity sensitivity</text>
   </g>
   <g id="legend_2">
    <g id="line2d_109">
     <path d="M 298.741219 384.191562 
L 306.741219 384.191562 
L 314.741219 384.191562 
" style="fill: none; stroke: #0072b2; stroke-width: 1.2; stroke-linecap: square"/>
     <g>
      <use xlink:href="#m7601bed2fc" x="306.741219" y="384.191562" style="fill: #0072b2; stroke: #0072b2"/>
     </g>
    </g>
    <g id="text_66">
     <text style="font-size: 8px; font-family: 'Arial', 'Helvetica', 'Liberation Sans', 'DejaVu Sans', sans-serif; text-anchor: start" x="321.141219" y="386.991562" transform="rotate(-0 321.141219 386.991562)">FlatfishBert</text>
    </g>
    <g id="line2d_110">
     <path d="M 298.741219 395.649062 
L 306.741219 395.649062 
L 314.741219 395.649062 
" style="fill: none; stroke: #d55e00; stroke-width: 1.2; stroke-linecap: square"/>
     <g>
      <use xlink:href="#m4eaad46c34" x="306.741219" y="395.649062" style="fill: #d55e00; stroke: #d55e00"/>
     </g>
    </g>
    <g id="text_67">
     <text style="font-size: 8px; font-family: 'Arial', 'Helvetica', 'Liberation Sans', 'DejaVu Sans', sans-serif; text-anchor: start" x="321.141219" y="398.449062" transform="rotate(-0 321.141219 398.449062)">DNABERT-2</text>
    </g>
   </g>
  </g>
 </g>
 <defs>
  <clipPath id="pfa9d2fc290">
   <rect x="39.435938" y="27.869062" width="183.937897" height="153"/>
  </clipPath>
  <clipPath id="p67bc54fba0">
   <rect x="291.541219" y="27.869062" width="92.755008" height="153"/>
  </clipPath>
  <clipPath id="p0342f3bf9b">
   <rect x="415.83293" y="27.869062" width="92.755008" height="153"/>
  </clipPath>
  <clipPath id="p00ca2cd9ae">
   <rect x="39.435938" y="254.309062" width="183.937897" height="153"/>
  </clipPath>
  <clipPath id="pc1a0816891">
   <rect x="291.541219" y="254.309062" width="217.046718" height="153"/>
  </clipPath>
 </defs>
</svg>
